<?xml version="1.0" encoding="UTF-8"?>
<svg version="1.1" xmlns="http://www.w3.org/2000/svg" width="1536" height="1024">
<path d="M0 0 C506.88 0 1013.76 0 1536 0 C1536 337.92 1536 675.84 1536 1024 C1029.12 1024 522.24 1024 0 1024 C0 686.08 0 348.16 0 0 Z " fill="#FEFEFE" transform="translate(0,0)"/>
<path d="M0 0 C0.75745514 -0.00067474 1.51491028 -0.00134949 2.2953186 -0.00204468 C25.77320737 0.03079067 48.67061492 2.67899239 71.5 8.25 C72.72251465 8.54777344 72.72251465 8.54777344 73.96972656 8.8515625 C107.75305275 17.27283201 140.39794096 32.76134055 168.5 53.25 C169.05123535 53.64960938 169.6024707 54.04921875 170.17041016 54.4609375 C181.90670745 63.00424521 192.99039274 72.24040929 203.5 82.25 C204.398396 83.10537354 204.398396 83.10537354 205.31494141 83.97802734 C213.63674375 91.96051491 221.17250381 100.15236886 228.07666016 109.39379883 C229.80301531 111.6451673 231.60099411 113.83306027 233.39453125 116.03125 C255.78755803 143.9588647 270.46892476 178.15845153 280.5 212.25 C280.70608887 212.93247803 280.91217773 213.61495605 281.12451172 214.31811523 C282.14367318 217.74982998 282.7176643 220.65853909 282.5 224.25 C280.4202626 222.1702626 279.79808768 220.85483226 278.72265625 218.1640625 C278.20844116 216.90650146 278.20844116 216.90650146 277.68383789 215.62353516 C277.12877563 214.26301025 277.12877563 214.26301025 276.5625 212.875 C264.79497784 184.80005383 247.45577522 160.09094754 227.5 137.25 C226.30890625 135.87328125 226.30890625 135.87328125 225.09375 134.46875 C221.17015691 130.00767841 217.16984065 125.888063 212.62109375 122.06640625 C211.11983068 120.78079423 209.65666797 119.45006413 208.22265625 118.08984375 C172.68047585 84.40965739 123.08822256 59.72549619 74.65820312 52.57373047 C73.13890701 52.34583605 71.62208745 52.1011132 70.10742188 51.84423828 C41.00330417 46.96979204 8.49462648 46.68109471 -20.5 52.25 C-21.54220703 52.44335938 -22.58441406 52.63671875 -23.65820312 52.8359375 C-71.79265595 61.99363727 -115.14609178 83.45790033 -151.5 116.25 C-152.07121582 116.76481934 -152.64243164 117.27963867 -153.23095703 117.81005859 C-157.02827852 121.24755539 -160.77672467 124.73245821 -164.5 128.25 C-165.25023437 128.95769531 -166.00046875 129.66539062 -166.7734375 130.39453125 C-171.27816757 134.76572189 -175.24917322 139.4670241 -179.16796875 144.3671875 C-180.67804583 146.23391595 -182.22082308 148.07484678 -183.80078125 149.8828125 C-226.28752822 198.69737285 -246.99716177 265.06221205 -246.875 329 C-246.87478851 330.02714111 -246.87457703 331.05428223 -246.87435913 332.11254883 C-246.83883911 349.47325421 -245.72681936 366.15785898 -242.5 383.25 C-242.31276367 384.26803711 -242.12552734 385.28607422 -241.93261719 386.33496094 C-233.80156854 429.48990481 -216.90980877 474.43891563 -189.5 509.25 C-188.84 509.58 -188.18 509.91 -187.5 510.25 C-187.10167969 508.99574219 -186.70335937 507.74148438 -186.29296875 506.44921875 C-184.42521766 500.85684347 -182.14043636 495.47623583 -179.8125 490.0625 C-178.81853679 487.73197278 -177.82507763 485.40123054 -176.83203125 483.0703125 C-176.43463242 482.13921913 -176.43463242 482.13921913 -176.02920532 481.1893158 C-172.99205958 474.07055181 -169.99350923 466.93560905 -166.99383545 459.80099487 C-160.5717793 444.52834909 -154.13244013 429.26300048 -147.6875 414 C-147.2791391 413.032901 -146.8707782 412.065802 -146.45004272 411.06939697 C-141.48810069 399.31899481 -136.52243728 387.57018524 -131.54711914 375.82543945 C-129.02799159 369.87474822 -126.51995306 363.91950504 -124.01953125 357.9609375 C-116.56130713 340.1940024 -109.03735848 322.45685224 -101.4375 304.75 C-93.89489857 287.17590547 -86.3695166 269.59466266 -78.875 252 C-78.39492493 250.87297668 -77.91484985 249.74595337 -77.42022705 248.58477783 C-69.89720974 230.91910696 -62.41561318 213.23618853 -54.95996094 195.54199219 C-51.60548131 187.58378339 -48.24502701 179.62863499 -44.83203125 171.6953125 C-44.55251114 171.04537323 -44.27299103 170.39543396 -43.98500061 169.72579956 C-42.74008322 166.83341248 -41.49156612 163.94265361 -40.23754883 161.05419922 C-38.97310621 158.12684613 -37.7289234 155.19243421 -36.5 152.25 C-36.0364209 151.14164795 -35.5728418 150.0332959 -35.09521484 148.89135742 C-31.31777955 139.53084865 -29.18860445 131.14903236 -32.52734375 121.18359375 C-34.08645574 117.92794044 -35.58340432 115.15156952 -38.16796875 112.609375 C-39.5 111.25 -39.5 111.25 -39.5 109.25 C-26.86056832 109.20360731 -14.22115698 109.16809551 -1.58165741 109.14637566 C4.28771477 109.13594989 10.15702859 109.12181263 16.02636719 109.09912109 C21.69329907 109.07734983 27.3601749 109.06542229 33.02714539 109.06024551 C35.1864256 109.05655746 37.34570283 109.04935564 39.50495911 109.03853989 C42.53527394 109.02396817 45.56535875 109.02202445 48.59570312 109.02294922 C49.92711838 109.01216339 49.92711838 109.01216339 51.28543091 109.00115967 C59.24518217 109.02734969 66.14957154 110.0285366 72.5 115.25 C76.35963147 120.16814765 78.90678862 124.9572505 81.21484375 130.7421875 C81.54677734 131.55200073 81.87871094 132.36181396 82.22070312 133.19616699 C82.93119863 134.93228249 83.63762344 136.67006857 84.34030151 138.40936279 C85.83876478 142.11815627 87.35708841 145.81871631 88.87416077 149.51992798 C89.64661599 151.40506873 90.41804692 153.29062951 91.1884613 155.17660522 C94.53231292 163.3574887 97.9676663 171.49693559 101.4375 179.625 C106.77251655 192.14858401 112.05655999 204.69302561 117.3125 217.25 C117.88079529 218.60747345 117.88079529 218.60747345 118.46057129 219.99237061 C122.62587086 229.94526526 126.77654723 239.90404432 130.8984375 249.875 C131.25506973 250.73764969 131.61170197 251.60029938 131.97914124 252.48908997 C132.3338298 253.34709702 132.68851837 254.20510406 133.05395508 255.08911133 C133.76510969 256.80941873 134.47629123 258.52971499 135.1875 260.25 C135.53863861 261.09936127 135.88977722 261.94872253 136.2515564 262.82382202 C141.42379649 275.32671635 146.69712503 287.78233531 152.04956055 300.20904541 C156.83350233 311.31842836 161.54179203 322.45708942 166.1875 333.625 C166.49856689 334.37269653 166.80963379 335.12039307 167.13012695 335.89074707 C170.41063971 343.78000736 173.67724145 351.67495818 176.93359375 359.57421875 C177.47891867 360.89599768 178.02424737 362.21777506 178.56958008 363.53955078 C179.56810667 365.96005541 180.56361941 368.38172359 181.55737305 370.80419922 C182.00508057 371.89104004 182.45278809 372.97788086 182.9140625 374.09765625 C183.2951416 375.02586182 183.6762207 375.95406738 184.06884766 376.91040039 C185.28741597 379.75393434 186.55605865 382.56247085 187.84790039 385.37304688 C190.56618687 391.33013942 193.06012839 397.36585415 195.51953125 403.43359375 C195.98179611 404.56918228 196.44406097 405.70477081 196.92033386 406.87477112 C198.38648196 410.47816719 199.84947433 414.08283524 201.3125 417.6875 C202.28170881 420.06973968 203.25110842 422.45190174 204.22070312 424.83398438 C210.16031744 439.43594861 216.04059416 454.06075843 221.87670898 468.7043457 C230.58926567 491.56367979 230.58926567 491.56367979 243.14672852 512.38378906 C244.5 514.25 244.5 514.25 244.5 516.25 C261.56659647 510.94716467 277.83552518 480.77694257 286.2734375 466.2109375 C287.5 464.25 287.5 464.25 289.5 462.25 C288.82880693 467.35106732 286.67659413 471.74028942 284.5625 476.375 C284.16063477 477.25808838 283.75876953 478.14117676 283.34472656 479.05102539 C273.36003298 500.73279137 261.65273469 521.73565022 246.5 540.25 C245.76394531 541.17683594 245.02789063 542.10367188 244.26953125 543.05859375 C232.44052668 557.8186791 219.37059922 571.54039714 204.5 583.25 C203.44170826 584.10944709 202.38445331 584.97017209 201.328125 585.83203125 C186.74107705 597.64201582 171.07770204 607.49068536 154.5 616.25 C153.83822754 616.60545898 153.17645508 616.96091797 152.49462891 617.32714844 C113.38997722 638.24975785 69.73007353 646.86170744 25.69042969 646.64111328 C21.87138336 646.62498473 18.05339027 646.64109051 14.234375 646.66015625 C-5.25394678 646.67776507 -23.93280297 644.88964726 -42.9375 640.5 C-44.06526855 640.24250977 -45.19303711 639.98501953 -46.35498047 639.71972656 C-86.25988302 630.38373897 -126.57670938 614.00435385 -159.5 589.25 C-160.10344238 588.80076172 -160.70688477 588.35152344 -161.32861328 587.88867188 C-178.32436598 575.21167796 -196.1717647 561.62493662 -209.80859375 545.25390625 C-211.89706916 542.77956933 -214.1063039 540.43237061 -216.3125 538.0625 C-221.76210179 532.07122093 -226.68031744 525.74735535 -231.5 519.25 C-231.99371094 518.5914502 -232.48742187 517.93290039 -232.99609375 517.25439453 C-276.22431957 459.45955023 -299.77719419 390.57943768 -299.6875 318.3125 C-299.68689575 317.40959229 -299.6862915 316.50668457 -299.68566895 315.57641602 C-299.65995139 301.38409082 -299.30450224 287.34421807 -297.5 273.25 C-297.32259277 271.81720703 -297.32259277 271.81720703 -297.14160156 270.35546875 C-290.98206798 222.5211265 -274.32888602 174.8383197 -246.5 135.25 C-245.75363281 134.1671875 -245.00726563 133.084375 -244.23828125 131.96875 C-213.51339517 87.7844545 -171.27213319 51.10175974 -122.46875 28.17675781 C-121.15747614 27.55949646 -119.85012336 26.93383501 -118.546875 26.29980469 C-81.55958297 8.33402849 -40.96614568 0.03323482 0 0 Z " fill="#933DCE" transform="translate(737.5,177.75)"/>
<path d="M0 0 C0.7049333 -0.00453111 1.40986659 -0.00906223 2.13616151 -0.01373065 C4.49824556 -0.02639069 6.86009952 -0.02475326 9.22221375 -0.02310181 C10.91586097 -0.02908611 12.60950546 -0.03589143 14.30314636 -0.04345703 C18.904487 -0.06113539 23.50575326 -0.06581322 28.10712457 -0.0670886 C31.94899093 -0.06898767 35.79083997 -0.07634539 39.63269967 -0.08343279 C48.69819115 -0.09972173 57.76364291 -0.10460133 66.82914734 -0.10317993 C76.17794474 -0.1019787 85.5265112 -0.12307566 94.87525016 -0.15466726 C102.90341029 -0.18082871 110.931495 -0.19154727 118.95969743 -0.19026911 C123.75374509 -0.18975939 128.54758761 -0.19544801 133.34159279 -0.21662521 C137.85195969 -0.2360051 142.3619257 -0.23613383 146.87230682 -0.22159195 C148.52547225 -0.21950236 150.17866274 -0.22421374 151.8317852 -0.23631287 C154.09356658 -0.25179129 156.35397013 -0.24244173 158.61572266 -0.22705078 C159.87983632 -0.22814032 161.14394999 -0.22922985 162.44637012 -0.2303524 C166.92056134 0.39666747 169.26271548 1.74978761 172.99833679 4.26742554 C174.79130554 6.73617554 174.79130554 6.73617554 176.18583679 9.76742554 C176.46080994 10.3550769 176.73578308 10.94272827 177.01908875 11.54818726 C178.04357948 13.77505632 179.02294477 16.01860503 179.99833679 18.26742554 C180.42243835 19.23841187 180.84653992 20.20939819 181.28349304 21.20980835 C184.08852102 27.65394993 186.84616406 34.11753573 189.58383179 40.59049988 C191.46144079 45.02235151 193.37282931 49.43857512 195.29911804 53.84945679 C195.84074073 55.09464969 196.38216544 56.33992872 196.92338562 57.58529663 C197.94031703 59.92245756 198.96195643 62.25757821 199.98930359 64.59017944 C209.98850718 87.67269496 209.98850718 87.67269496 207.99833679 98.26742554 C206.67833679 101.23742554 205.35833679 104.20742554 203.99833679 107.26742554 C221.81833679 107.59742554 239.63833679 107.92742554 257.99833679 108.26742554 C241.53632729 124.72943504 223.64866327 137.50497813 202.99833679 148.26742554 C201.68448596 148.97045944 200.37068257 149.67358202 199.05693054 150.37680054 C181.59139036 159.57011793 163.0986591 165.51876689 143.99833679 170.26742554 C142.86114197 170.56109009 142.86114197 170.56109009 141.70097351 170.86068726 C113.66449437 178.06647146 83.42673731 179.79865937 54.68583679 177.07992554 C53.99546326 177.01462646 53.30508972 176.94932739 52.59379578 176.88204956 C-6.03553957 171.22353532 -62.24362612 146.85803052 -106.00166321 107.26742554 C-106.00166321 106.93742554 -106.00166321 106.60742554 -106.00166321 106.26742554 C-84.22166321 106.26742554 -62.44166321 106.26742554 -40.00166321 106.26742554 C-41.65166321 103.62742554 -43.30166321 100.98742554 -45.00166321 98.26742554 C-51.27563106 73.17155414 -35.14596948 45.69321926 -25.56416321 23.39242554 C-25.16374817 22.45463257 -24.76333313 21.5168396 -24.3507843 20.55062866 C-20.72009352 12.23878153 -17.0350938 6.14253482 -9.25176716 1.14351463 C-6.10863851 -0.08027804 -3.37059525 0.00894485 0 0 Z " fill="#FEFEFE" transform="translate(684.0016632080078,614.7325744628906)"/>
<path d="M0 0 C0.66 0 1.32 0 2 0 C2.20979492 0.58040039 2.41958984 1.16080078 2.63574219 1.75878906 C7.91350171 16.27969869 13.6911942 30.51527206 19.83984375 44.6875 C22.78683973 51.48082284 25.65806892 58.30383508 28.50933838 65.13778687 C34.93341075 80.53256688 41.48927491 95.86924695 48.07730103 111.19445801 C50.46295802 116.74536668 52.84024914 122.29981988 55.21484375 127.85546875 C56.24702821 130.26911037 57.27929819 132.6827154 58.31158447 135.09631348 C58.97371168 136.64505885 59.63546091 138.19396588 60.29681396 139.74304199 C61.21369524 141.89036823 62.13207598 144.03704738 63.05078125 146.18359375 C63.32091537 146.81734421 63.5910495 147.45109467 63.86936951 148.10404968 C64.90705631 150.52553976 65.95180536 152.90890606 67.18432617 155.23852539 C68 157 68 157 68 160 C23.45 160 -21.1 160 -67 160 C-63.62492895 149.87478685 -63.62492895 149.87478685 -62.21337891 146.59887695 C-61.89470856 145.85439804 -61.57603821 145.10991913 -61.24771118 144.34288025 C-60.91073212 143.56586258 -60.57375305 142.78884491 -60.2265625 141.98828125 C-59.86646088 141.14999283 -59.50635925 140.31170441 -59.13534546 139.44801331 C-57.96871423 136.73466051 -56.7969065 134.02357801 -55.625 131.3125 C-54.81089352 129.42151774 -53.99709431 127.53040316 -53.18359375 125.63916016 C-49.56108166 117.22333748 -45.92289404 108.8143271 -42.2734375 100.41015625 C-41.84824326 99.43061729 -41.84824326 99.43061729 -41.41445923 98.43128967 C-40.14227133 95.50137915 -38.86777619 92.5725226 -37.58837891 89.64575195 C-28.42621092 68.61172635 -19.84350223 47.32888275 -11.22192383 26.06933594 C-9.92218765 22.8656773 -8.61950538 19.66322943 -7.31640625 16.4609375 C-6.92578506 15.49537933 -6.53516388 14.52982117 -6.13270569 13.53500366 C-4.25328944 8.9216689 -2.31375731 4.41262308 0 0 Z " fill="#FEFEFE" transform="translate(762,383)"/>
<path d="M0 0 C2.28267852 2.28267852 2.9384832 4.03104004 4.1015625 7.03125 C4.70689819 8.57522461 4.70689819 8.57522461 5.32446289 10.15039062 C5.75364014 11.25576172 6.18281738 12.36113281 6.625 13.5 C17.03964501 40.92817556 17.03964501 40.92817556 32 66 C32 66.66 32 67.32 32 68 C49.06659647 62.69716467 65.33552518 32.52694257 73.7734375 17.9609375 C75 16 75 16 77 14 C76.32880693 19.10106732 74.17659413 23.49028942 72.0625 28.125 C71.45970215 29.44963257 71.45970215 29.44963257 70.84472656 30.80102539 C60.86003298 52.48279137 49.15273469 73.48565022 34 92 C33.26394531 92.92683594 32.52789063 93.85367188 31.76953125 94.80859375 C19.94052668 109.5686791 6.87059922 123.29039714 -8 135 C-9.05829174 135.85944709 -10.11554669 136.72017209 -11.171875 137.58203125 C-25.75892295 149.39201582 -41.42229796 159.24068536 -58 168 C-58.66177246 168.35545898 -59.32354492 168.71091797 -60.00537109 169.07714844 C-99.11002278 189.99975785 -142.76992647 198.61170744 -186.80957031 198.39111328 C-190.62861664 198.37498473 -194.44660973 198.39109051 -198.265625 198.41015625 C-217.75513802 198.42776614 -236.4313159 196.63662366 -255.4375 192.25 C-256.55656738 191.99613525 -257.67563477 191.74227051 -258.82861328 191.48071289 C-274.19238727 187.90292204 -290.75200465 183.9674263 -305 177 C-305.33 176.34 -305.66 175.68 -306 175 C-304.45797384 175.45712238 -302.91639786 175.91576347 -301.375 176.375 C-299.99054687 176.78685547 -299.99054687 176.78685547 -298.578125 177.20703125 C-296.74292117 177.77149546 -294.92599657 178.39691431 -293.125 179.0625 C-290.10337193 179.96898842 -287.24006315 180.46245287 -284.125 180.9375 C-279.05946844 181.74125593 -274.70746577 183.02358307 -270 185 C-263.44831987 187.69302189 -257.6119457 189.45310731 -250.5078125 189.82421875 C-247.93016388 190.00489506 -245.52542326 190.46467565 -243 191 C-241.7625 191.165 -240.525 191.33 -239.25 191.5 C-236 192 -236 192 -235 193 C-234.175 193 -233.35 193 -232.5 193 C-231.675 193 -230.85 193 -230 193 C-229.67 193.33 -229.34 193.66 -229 194 C-227.33382885 194.04063832 -225.66611905 194.042721 -224 194 C-224 194.66 -224 195.32 -224 196 C-211.97697484 196.05760519 -199.96835079 195.92814203 -187.94897461 195.62768555 C-185.30395144 195.56228864 -182.65883791 195.50266146 -180.01367188 195.44335938 C-172.18614479 195.25932903 -164.36047035 195.03629119 -156.54296875 194.58984375 C-155.39207764 194.52531006 -154.24118652 194.46077637 -153.05541992 194.39428711 C-150.04393868 194.00567007 -147.76084719 193.22455222 -145 192 C-142.859375 191.62109375 -142.859375 191.62109375 -140.75 191.4375 C-139.58984375 191.32535156 -139.58984375 191.32535156 -138.40625 191.2109375 C-136.80208333 191.0703125 -135.19791667 190.9296875 -133.59375 190.7890625 C-129.34934793 190.3787703 -125.93176951 189.74745312 -122 188 C-120.33678518 187.64984951 -118.66965451 187.31802943 -117 187 C-113.82511221 186.12846218 -110.67146555 185.21742694 -107.5390625 184.203125 C-102.8882595 182.72268921 -98.94761268 181.609399 -94 182 C-93.67 181.34 -93.34 180.68 -93 180 C-91.17238171 179.22573807 -89.31038889 178.53223463 -87.4375 177.875 C-81.27590011 175.59242275 -75.48377044 172.86413546 -69.64624023 169.85498047 C-66.54264987 168.2579912 -63.44653275 166.73028634 -60.23046875 165.37109375 C-55.74209068 163.46611104 -51.66241105 161.01519293 -47.51171875 158.48046875 C-46.64160156 157.95066406 -45.77148438 157.42085937 -44.875 156.875 C-44.06804687 156.37742187 -43.26109375 155.87984375 -42.4296875 155.3671875 C-40 154 -40 154 -37.2578125 153.0078125 C-36.51273438 152.67523437 -35.76765625 152.34265625 -35 152 C-34.67 151.01 -34.34 150.02 -34 149 C-33.01 149 -32.02 149 -31 149 C-29.64631404 147.68733482 -28.31200404 146.35432675 -27 145 C-26.34 145 -25.68 145 -25 145 C-25 144.34 -25 143.68 -25 143 C-23.20963542 142.0234375 -21.41927083 141.046875 -19.62890625 140.0703125 C-17.83381685 139.08589976 -17.83381685 139.08589976 -17 137 C-16.01 136.67 -15.02 136.34 -14 136 C-12.64499081 134.68870078 -11.31328657 133.35308313 -10 132 C-6.35714286 129 -6.35714286 129 -4 129 C-3.67 128.01 -3.34 127.02 -3 126 C-1.546875 124.5703125 -1.546875 124.5703125 0.25 123.125 C6.07507101 118.32065954 6.07507101 118.32065954 10.5625 112.3125 C12 110 12 110 13.80078125 109.16015625 C16.71441686 107.6231229 18.44381337 105.58339429 20.625 103.125 C21.40101563 102.26132812 22.17703125 101.39765625 22.9765625 100.5078125 C24.71942941 98.34773421 25.82131002 96.47786827 27 94 C31.33333333 89.22222222 31.33333333 89.22222222 35 88 C35.72519717 86.35795515 36.3850008 84.68641579 37 83 C37.88581819 81.54483317 38.81602987 80.11590707 39.78515625 78.71484375 C40.58083008 77.54791992 40.58083008 77.54791992 41.39257812 76.35742188 C42.50894565 74.73966823 43.62613796 73.12248344 44.74414062 71.50585938 C45.27330078 70.72919922 45.80246094 69.95253906 46.34765625 69.15234375 C46.83242432 68.45101318 47.31719238 67.74968262 47.81665039 67.02709961 C49.00281709 64.99517427 49.4732927 63.27330143 50 61 C51 60 52 59 53 58 C54.19027984 55.40084462 54.19027984 55.40084462 55 53 C54.34 53 53.68 53 53 53 C51.71536479 54.56418154 51.71536479 54.56418154 50.5 56.5 C49.21875 58.46875 49.21875 58.46875 48 60 C47.34 60 46.68 60 46 60 C43.98399675 62.50184187 42.13330853 65.10082212 40.265625 67.71484375 C37.53296514 70.47106103 35.8061842 70.74444192 32 71 C32 70.34 32 69.68 32 69 C31.401875 68.773125 30.80375 68.54625 30.1875 68.3125 C27.36759165 66.62055499 26.40402914 64.94846119 25 62 C25 60.68 25 59.36 25 58 C24.34 58 23.68 58 23 58 C15 44.05533597 15 44.05533597 15 38 C14.34 38 13.68 38 13 38 C12.66226562 37.25234375 12.32453125 36.5046875 11.9765625 35.734375 C11.53054688 34.74953125 11.08453125 33.7646875 10.625 32.75 C10.18414063 31.77546875 9.74328125 30.8009375 9.2890625 29.796875 C8.55588332 28.20609836 7.79661426 26.62534205 6.9609375 25.0859375 C5.06656127 20.97375494 4.16124951 16.48094544 3 12.1171875 C2.2418055 8.93693225 2.2418055 8.93693225 0 7 C-0.125 3.375 -0.125 3.375 0 0 Z M56 49 C55.67 49.66 55.34 50.32 55 51 C55.66 51 56.32 51 57 51 C56.67 50.34 56.34 49.68 56 49 Z " fill="#E0318A" transform="translate(950,626)"/>
<path d="M0 0 C0 0.66 0 1.32 0 2 C1.40185547 2.29583984 1.40185547 2.29583984 2.83203125 2.59765625 C6 4 6 4 7.57421875 6.93359375 C7.94160156 8.08988281 8.30898438 9.24617187 8.6875 10.4375 C10.41566289 15.82065722 10.41566289 15.82065722 14 20 C16.0022368 24.24474202 17.51833406 28.55500217 19 33 C21.34816984 38.76368961 24.08565439 44.29095537 26.9375 49.81640625 C32.05815267 60.34010052 36.32522645 71.14444478 39.30859375 82.453125 C39.84953202 84.44573377 40.47207551 86.41622653 41.125 88.375 C42.88782841 93.66348523 43.16253869 96.53058451 41.0625 101.8125 C40.68222656 102.78832031 40.30195312 103.76414062 39.91015625 104.76953125 C39.60980469 105.50558594 39.30945313 106.24164062 39 107 C40.37347099 107.19839025 41.74891846 107.38310983 43.125 107.5625 C44.27355469 107.71912109 44.27355469 107.71912109 45.4453125 107.87890625 C48.0440017 108.09571849 48.0440017 108.09571849 50.74414062 107.51806641 C56.58341773 106.58893128 62.47430182 106.81543275 68.375 106.8125 C69.6640625 106.80025391 70.953125 106.78800781 72.28125 106.77539062 C78.8747278 106.7652364 84.70408695 106.98371392 91 109 C90.875 111.1875 90.875 111.1875 90 114 C88.03814584 115.71140469 86.03697617 117.37873325 84 119 C82.62745412 121.14980497 82.62745412 121.14980497 82 123 C81.01 123 80.02 123 79 123 C76.84982472 123.74172877 76.84982472 123.74172877 75 125 C74.67 125.99 74.34 126.98 74 128 C71.9375 128.6875 71.9375 128.6875 70 129 C70 129.66 70 130.32 70 131 C67.91796875 132.40234375 67.91796875 132.40234375 65.1875 133.9375 C62.01024136 135.73015242 59.53593948 137.40048543 57 140 C55.3359375 141.03515625 55.3359375 141.03515625 53.375 142.0625 C50.17198392 143.78234608 47.02554178 145.56875847 43.91015625 147.44140625 C43.17555176 147.88154053 42.44094727 148.3216748 41.68408203 148.77514648 C40.21726236 149.65648163 38.75325072 150.54251199 37.29248047 151.43383789 C33.83985223 153.49909954 30.5046295 155.27633804 26.71484375 156.64453125 C23.70403063 157.74311396 21.65643222 158.70183899 19.125 160.5625 C15.30657543 163.09050836 11.80383662 163.85682388 7.296875 164.4453125 C4.61189053 165.09372712 3.17233437 166.33933117 1 168 C0.01 168 -0.98 168 -2 168 C-3.8998684 168.73328254 -5.79927625 169.46780241 -7.6953125 170.2109375 C-10.90515653 171.30990105 -14.15732588 171.85662956 -17.48828125 172.46875 C-20.70840598 173.14983392 -23.73835776 174.192485 -26.84375 175.26953125 C-32.62345727 177.22751179 -37.85966518 178.12039872 -44 178 C-44.99 178.33 -45.98 178.66 -47 179 C-47.99 178.67 -48.98 178.34 -50 178 C-50 178.66 -50 179.32 -50 180 C-51.92057292 179.93489583 -53.84114583 179.86979167 -55.76171875 179.8046875 C-58.06040433 179.87966325 -58.06040433 179.87966325 -60.19824219 181.00219727 C-63.6398287 182.2278651 -66.41566256 182.20980845 -70.06640625 182.16015625 C-70.74114487 182.15495468 -71.41588348 182.14975311 -72.11106873 182.14439392 C-74.26177111 182.12667921 -76.41198389 182.09560717 -78.5625 182.0625 C-81.37626686 182.02549792 -84.18998904 181.99551354 -87.00390625 181.97265625 C-87.68611237 181.96634186 -88.36831848 181.96002747 -89.07119751 181.95352173 C-94.31272232 181.93359437 -99.45439118 182.28950495 -104.65991211 182.87670898 C-107 183 -107 183 -110 182 C-110 181.34 -110 180.68 -110 180 C-110.99 180.33 -111.98 180.66 -113 181 C-119.66093835 181.38385068 -125.42191951 180.76074506 -131.8125 178.875 C-136.14982407 177.75142653 -139.61610763 178.21716208 -144 179 C-144.495 177.02 -144.495 177.02 -145 175 C-145.84304688 175.02320313 -146.68609375 175.04640625 -147.5546875 175.0703125 C-148.65039062 175.08835937 -149.74609375 175.10640625 -150.875 175.125 C-151.96554687 175.14820313 -153.05609375 175.17140625 -154.1796875 175.1953125 C-157 175 -157 175 -159 173 C-160.52056618 172.40165446 -162.06612088 171.86493344 -163.625 171.375 C-164.44226563 171.11460937 -165.25953125 170.85421875 -166.1015625 170.5859375 C-166.72804688 170.39257812 -167.35453125 170.19921875 -168 170 C-164.48194452 168.7928038 -162.12214841 169.22247614 -158.546875 170.109375 C-157.4643042 170.36823486 -156.3817334 170.62709473 -155.26635742 170.89379883 C-154.10595947 171.17634521 -152.94556152 171.4588916 -151.75 171.75 C-138.89426171 174.7463593 -126.13101011 176.72376243 -113 178 C-112.28505371 178.07057617 -111.57010742 178.14115234 -110.83349609 178.21386719 C-106.89122423 178.5876266 -102.9564248 178.84034604 -99 179 C-98.00871094 179.04125 -97.01742187 179.0825 -95.99609375 179.125 C-49.49666122 180.03787229 -2.89491776 169.13056451 38 147 C39.72476563 146.08347656 39.72476563 146.08347656 41.484375 145.1484375 C56.20743573 137.05408511 69.3720554 127.02550198 82 116 C83.98 114.35 85.96 112.7 88 111 C70.18 110.67 52.36 110.34 34 110 C35.32 106.7 36.64 103.4 38 100 C39.61960248 85.24362185 32.43003199 71.03364398 26.41143799 57.88894653 C24.62546901 53.98775965 22.8697496 50.07294109 21.109375 46.16015625 C20.75884064 45.38322922 20.40830627 44.60630219 20.04714966 43.80583191 C16.802583 36.60093103 13.68864219 29.3461334 10.625 22.0625 C10.17946777 21.00434082 9.73393555 19.94618164 9.27490234 18.85595703 C6.1517499 11.4114771 6.1517499 11.4114771 4.99365234 8.27124023 C4.19316665 5.87192675 4.19316665 5.87192675 2.0625 4.75 C-2.13048646 3.22527765 -5.3412021 2.86485747 -9.81462097 2.84178162 C-10.51138815 2.83684364 -11.20815532 2.83190566 -11.92603666 2.82681805 C-14.26603699 2.81143239 -16.60600986 2.80307955 -18.94604492 2.79467773 C-20.62134544 2.78510005 -22.29664354 2.77509003 -23.97193909 2.76467896 C-28.52531975 2.73761196 -33.0787108 2.71661211 -37.63212752 2.69667697 C-42.38874825 2.67482849 -47.1453369 2.64743424 -51.90193176 2.62062073 C-60.9116364 2.57067844 -69.92135882 2.5257453 -78.93109828 2.48259836 C-89.18734212 2.43323912 -99.44355379 2.37831612 -109.69976652 2.32291877 C-130.79981437 2.20907514 -151.89989294 2.10224128 -173 2 C-173 1.67 -173 1.34 -173 1 C-151.47718426 0.86935916 -129.95436707 0.73896015 -108.43154812 0.60884857 C-98.43800729 0.54842914 -88.44446695 0.48793074 -78.45092773 0.42724609 C-69.73998278 0.37435005 -61.02903695 0.32160254 -52.31809002 0.26903296 C-47.70627054 0.24119597 -43.09445154 0.2132849 -38.48263359 0.18519592 C-34.13988795 0.15874812 -29.79714115 0.13249926 -25.45439339 0.10640144 C-23.86251405 0.09680023 -22.27063514 0.087127 -20.67875671 0.07737541 C-18.50043346 0.06404227 -16.32210878 0.05097154 -14.14378357 0.03796387 C-12.92609504 0.03058952 -11.70840651 0.02321518 -10.45381832 0.01561737 C-6.96916118 -0.00013945 -3.48468766 -0.00270779 0 0 Z " fill="#DB2C85" transform="translate(853,613)"/>
<path d="M0 0 C0 0.66 0 1.32 0 2 C1.40185547 2.29583984 1.40185547 2.29583984 2.83203125 2.59765625 C6 4 6 4 7.57421875 6.93359375 C7.94160156 8.08988281 8.30898438 9.24617187 8.6875 10.4375 C10.41566289 15.82065722 10.41566289 15.82065722 14 20 C16.0022368 24.24474202 17.51833406 28.55500217 19 33 C21.34816984 38.76368961 24.08565439 44.29095537 26.9375 49.81640625 C32.05815267 60.34010052 36.32522645 71.14444478 39.30859375 82.453125 C39.84953202 84.44573377 40.47207551 86.41622653 41.125 88.375 C42.88782841 93.66348523 43.16253869 96.53058451 41.0625 101.8125 C40.68222656 102.78832031 40.30195312 103.76414062 39.91015625 104.76953125 C39.60980469 105.50558594 39.30945313 106.24164062 39 107 C44.64707714 107.7871174 50.17762337 108.19243168 55.875 108.31640625 C56.68493408 108.33718735 57.49486816 108.35796844 58.3293457 108.37937927 C60.88615424 108.44413656 63.44305481 108.50341194 66 108.5625 C67.74610281 108.60575566 69.49219672 108.64937204 71.23828125 108.69335938 C75.49209609 108.79974083 79.74600236 108.90121018 84 109 C84 109.33 84 109.66 84 110 C67.5 110 51 110 34 110 C35.32 106.7 36.64 103.4 38 100 C39.61960248 85.24362185 32.43003199 71.03364398 26.41143799 57.88894653 C24.62546901 53.98775965 22.8697496 50.07294109 21.109375 46.16015625 C20.75884064 45.38322922 20.40830627 44.60630219 20.04714966 43.80583191 C16.802583 36.60093103 13.68864219 29.3461334 10.625 22.0625 C10.17946777 21.00434082 9.73393555 19.94618164 9.27490234 18.85595703 C6.1517499 11.4114771 6.1517499 11.4114771 4.99365234 8.27124023 C4.19316665 5.87192675 4.19316665 5.87192675 2.0625 4.75 C-2.13048646 3.22527765 -5.3412021 2.86485747 -9.81462097 2.84178162 C-10.51138815 2.83684364 -11.20815532 2.83190566 -11.92603666 2.82681805 C-14.26603699 2.81143239 -16.60600986 2.80307955 -18.94604492 2.79467773 C-20.62134544 2.78510005 -22.29664354 2.77509003 -23.97193909 2.76467896 C-28.52531975 2.73761196 -33.0787108 2.71661211 -37.63212752 2.69667697 C-42.38874825 2.67482849 -47.1453369 2.64743424 -51.90193176 2.62062073 C-60.9116364 2.57067844 -69.92135882 2.5257453 -78.93109828 2.48259836 C-89.18734212 2.43323912 -99.44355379 2.37831612 -109.69976652 2.32291877 C-130.79981437 2.20907514 -151.89989294 2.10224128 -173 2 C-173 1.67 -173 1.34 -173 1 C-151.47718426 0.86935916 -129.95436707 0.73896015 -108.43154812 0.60884857 C-98.43800729 0.54842914 -88.44446695 0.48793074 -78.45092773 0.42724609 C-69.73998278 0.37435005 -61.02903695 0.32160254 -52.31809002 0.26903296 C-47.70627054 0.24119597 -43.09445154 0.2132849 -38.48263359 0.18519592 C-34.13988795 0.15874812 -29.79714115 0.13249926 -25.45439339 0.10640144 C-23.86251405 0.09680023 -22.27063514 0.087127 -20.67875671 0.07737541 C-18.50043346 0.06404227 -16.32210878 0.05097154 -14.14378357 0.03796387 C-12.92609504 0.03058952 -11.70840651 0.02321518 -10.45381832 0.01561737 C-6.96916118 -0.00013945 -3.48468766 -0.00270779 0 0 Z " fill="#CA62AE" transform="translate(853,613)"/>
<path d="M0 0 C1.54202616 0.45712238 3.08360214 0.91576347 4.625 1.375 C6.00945313 1.78685547 6.00945313 1.78685547 7.421875 2.20703125 C9.25707883 2.77149546 11.07400343 3.39691431 12.875 4.0625 C15.89662807 4.96898842 18.75993685 5.46245287 21.875 5.9375 C26.94053156 6.74125593 31.29253423 8.02358307 36 10 C42.55168013 12.69302189 48.3880543 14.45310731 55.4921875 14.82421875 C58.06983612 15.00489506 60.47457674 15.46467565 63 16 C64.2375 16.165 65.475 16.33 66.75 16.5 C70 17 70 17 71 18 C71.825 18 72.65 18 73.5 18 C74.325 18 75.15 18 76 18 C76.33 18.33 76.66 18.66 77 19 C78.66617115 19.04063832 80.33388095 19.042721 82 19 C82 19.66 82 20.32 82 21 C94.02302516 21.05760519 106.03164921 20.92814203 118.05102539 20.62768555 C120.69604856 20.56228864 123.34116209 20.50266146 125.98632812 20.44335938 C133.81385521 20.25932903 141.63952965 20.03629119 149.45703125 19.58984375 C150.60792236 19.52531006 151.75881348 19.46077637 152.94458008 19.39428711 C155.95606132 19.00567007 158.23915281 18.22455222 161 17 C163.140625 16.62109375 163.140625 16.62109375 165.25 16.4375 C166.02601563 16.3653125 166.80203125 16.293125 167.6015625 16.21875 C168.39304687 16.1465625 169.18453125 16.074375 170 16 C171.54189105 15.81435425 173.08356454 15.62689139 174.625 15.4375 C178.44520793 15.00781053 182.15806918 14.91825679 186 15 C183.19141934 16.87238711 181.89690217 17.39146784 178.7109375 18 C177.84984375 18.165 176.98875 18.33 176.1015625 18.5 C175.20179688 18.665 174.30203125 18.83 173.375 19 C172.529375 19.165 171.68375 19.33 170.8125 19.5 C167.88140762 20.05011704 164.94581794 20.5349888 162 21 C160.27898071 21.27686646 160.27898071 21.27686646 158.52319336 21.55932617 C145.62268606 23.36128901 132.72581109 23.33772149 119.71850586 23.31567383 C115.8374401 23.31252027 111.95714366 23.33602652 108.07617188 23.36132812 C88.44959901 23.41217599 69.70260103 21.66753166 50.5625 17.25 C49.44343262 16.99613525 48.32436523 16.74227051 47.17138672 16.48071289 C31.80761273 12.90292204 15.24799535 8.9674263 1 2 C0.67 1.34 0.34 0.68 0 0 Z " fill="#CC2890" transform="translate(644,801)"/>
<path d="M0 0 C25.6461519 23.31468355 39.33379319 64.57861313 49.0625 96.75 C49.26681641 97.42305176 49.47113281 98.09610352 49.68164062 98.78955078 C50.68451928 102.27880819 51.21480481 105.36910586 51 109 C48.9202626 106.9202626 48.29808768 105.60483226 47.22265625 102.9140625 C46.87952393 102.07520508 46.5363916 101.23634766 46.18286133 100.37207031 C45.81314209 99.46553711 45.44342285 98.55900391 45.0625 97.625 C41.85149733 89.94302296 38.34189273 82.53718486 34.3125 75.25 C33.87365479 74.45416504 33.43480957 73.65833008 32.98266602 72.83837891 C29.9114789 67.37989316 26.53852223 62.16619641 23 57 C23.33 56.34 23.66 55.68 24 55 C24.53625 55.928125 25.0725 56.85625 25.625 57.8125 C28.17894631 61.24016479 30.09810078 62.4037685 34 64 C33.34 62.68 32.68 61.36 32 60 C31.67 60 31.34 60 31 60 C30.82726562 59.20980469 30.65453125 58.41960937 30.4765625 57.60546875 C28.52745397 49.78221205 25.74772114 42.99348091 22 35.875 C21.57283691 35.05797607 21.14567383 34.24095215 20.70556641 33.39916992 C18.97240168 30.19478392 17.46715713 27.46543964 14.875 24.8828125 C12.7571455 22.75613361 11.94216284 20.6404683 10.85302734 17.87744141 C9.31780279 14.49854133 7.03589956 11.64040299 4.8125 8.6875 C0 2.25521558 0 2.25521558 0 0 Z " fill="#BE34AB" transform="translate(969,293)"/>
<path d="M0 0 C2.49325659 2.23199914 3.75225995 4.26818462 5.04296875 7.34375 C5.39423828 8.17777344 5.74550781 9.01179687 6.10742188 9.87109375 C6.46384766 10.73863281 6.82027344 11.60617187 7.1875 12.5 C7.55552734 13.36753906 7.92355469 14.23507812 8.30273438 15.12890625 C11 21.60434543 11 21.60434543 11 25 C-33.88 25 -78.76 25 -125 25 C-125.33 24.34 -125.66 23.68 -126 23 C-81.45 23 -36.9 23 9 23 C6.03 16.07 3.06 9.14 0 2 C0 1.34 0 0.68 0 0 Z " fill="#95249F" transform="translate(821,520)"/>
<path d="M0 0 C2.72010085 8.16030254 -1.19762403 19.8805003 -2.5390625 28.23046875 C-2.71179688 29.32746094 -2.88453125 30.42445313 -3.0625 31.5546875 C-3.21847656 32.52905762 -3.37445313 33.50342773 -3.53515625 34.50732422 C-4.68528045 43.14896117 -5.15335331 51.72122658 -5.24609375 60.43359375 C-5.27898243 62.56706216 -5.31219477 64.70052561 -5.34570312 66.83398438 C-5.39334263 70.15418623 -5.43793158 73.47436111 -5.47680664 76.79467773 C-5.51642203 80.02866948 -5.56792683 83.26230041 -5.62109375 86.49609375 C-5.6295079 87.49088242 -5.63792206 88.48567108 -5.64659119 89.51060486 C-5.66323318 90.43579422 -5.67987518 91.36098358 -5.69702148 92.31420898 C-5.70732895 93.12486313 -5.71763641 93.93551727 -5.72825623 94.77073669 C-6.02689471 97.22063208 -6.77745322 98.87266022 -8 101 C-8.81720275 95.28729023 -9.14765188 89.76259708 -9.1328125 83.99609375 C-9.13376923 83.15514664 -9.13472595 82.31419952 -9.13571167 81.44776917 C-9.13638849 79.67538376 -9.13456913 77.9029958 -9.13037109 76.13061523 C-9.12506318 73.46917897 -9.13030863 70.80791513 -9.13671875 68.14648438 C-9.15085163 41.78711811 -9.15085163 41.78711811 -6 31 C-6.00902344 29.93394531 -6.01804687 28.86789062 -6.02734375 27.76953125 C-5.9894286 22.54265673 -4.77025597 17.75475164 -3.5625 12.6875 C-3.33240234 11.68654297 -3.10230469 10.68558594 -2.86523438 9.65429688 C-1.1538302 2.3076604 -1.1538302 2.3076604 0 0 Z " fill="#7B3CC5" transform="translate(496,435)"/>
<path d="M0 0 C31.02 0 62.04 0 94 0 C93.67 0.99 93.34 1.98 93 3 C64.62 3 36.24 3 7 3 C7.99 5.97 8.98 8.94 10 12 C9.34 12.66 8.68 13.32 8 14 C7.03980636 12.41779413 6.08192202 10.83418669 5.125 9.25 C4.59132813 8.36828125 4.05765625 7.4865625 3.5078125 6.578125 C2.25327503 4.43306093 1.11132031 2.22264061 0 0 Z " fill="#7630B9" transform="translate(698,287)"/>
<path d="M0 0 C1.6947357 5.08420711 -0.00124746 10.72506367 -2.125 15.5625 C-3.2778113 18.7739029 -3.10344573 21.62825166 -2.97265625 25.01171875 C-3 27 -3 27 -4 29 C-3.814375 29.639375 -3.62875 30.27875 -3.4375 30.9375 C-3.293125 31.618125 -3.14875 32.29875 -3 33 C-3.66 33.99 -4.32 34.98 -5 36 C-5.20470062 38.57684944 -5.20470062 38.57684944 -5.0625 41.375 C-4.89794241 46.56929597 -4.89794241 46.56929597 -5.49780273 49.10083008 C-6.19742497 53.13972851 -6.10262681 57.08530603 -6.0625 61.17578125 C-6.05871338 62.05977097 -6.05492676 62.94376068 -6.05102539 63.85453796 C-6.03474985 67.62110147 -6.00667544 71.38755465 -5.97949219 75.15405273 C-5.96130366 77.91129037 -5.94927271 80.66850991 -5.9375 83.42578125 C-5.92920166 84.26563065 -5.92090332 85.10548004 -5.91235352 85.97077942 C-5.89138314 91.07562652 -6.26307972 95.94709143 -7 101 C-7.33 101 -7.66 101 -8 101 C-8.80681289 95.32454412 -9.15904881 89.82235241 -9.16796875 84.09375 C-9.17220352 83.25992798 -9.17643829 82.42610596 -9.18080139 81.5670166 C-9.1906477 78.87795923 -9.19072746 76.18907216 -9.1875 73.5 C-9.18689575 72.57960938 -9.1862915 71.65921875 -9.18566895 70.7109375 C-9.15160707 51.62299473 -7.89391949 33.07441629 -5.0625 14.1875 C-4.90491211 13.11177734 -4.74732422 12.03605469 -4.58496094 10.92773438 C-4.42415039 9.93451172 -4.26333984 8.94128906 -4.09765625 7.91796875 C-3.95851807 7.03906982 -3.81937988 6.1601709 -3.67602539 5.25463867 C-2.92027136 2.7340939 -1.99914242 1.66566787 0 0 Z " fill="#793BC1" transform="translate(447,423)"/>
<path d="M0 0 C5.33542001 0.56096706 10.43965088 1.49635688 15.66235352 2.71386719 C24.91473857 4.86954633 34.13175806 6.59070439 43.5625 7.75 C44.96822266 7.92281494 44.96822266 7.92281494 46.40234375 8.09912109 C59.91308209 9.66260114 73.29245555 10.13916399 86.875 10.0625 C88.4492173 10.05746796 90.02343619 10.05290811 91.59765625 10.04882812 C95.39847768 10.0379736 99.19922056 10.02080602 103 10 C103 10.33 103 10.66 103 11 C102.15405273 11.05534912 101.30810547 11.11069824 100.43652344 11.16772461 C97.23822529 11.3774956 94.03999195 11.58822442 90.84179688 11.79956055 C89.46877448 11.89010182 88.09572828 11.98028294 86.72265625 12.07006836 C78.9236621 12.58030957 71.14082789 13.12910609 63.36425781 13.91625977 C61 14 61 14 58 13 C58 12.34 58 11.68 58 11 C57.01 11.33 56.02 11.66 55 12 C48.33906165 12.38385068 42.57808049 11.76074506 36.1875 9.875 C31.85017593 8.75142653 28.38389237 9.21716208 24 10 C23.67 8.68 23.34 7.36 23 6 C22.15695312 6.02320313 21.31390625 6.04640625 20.4453125 6.0703125 C18.80175781 6.09738281 18.80175781 6.09738281 17.125 6.125 C16.03445313 6.14820313 14.94390625 6.17140625 13.8203125 6.1953125 C11 6 11 6 9 4 C7.47943382 3.40165446 5.93387912 2.86493344 4.375 2.375 C3.55773437 2.11460937 2.74046875 1.85421875 1.8984375 1.5859375 C0.95871094 1.29589844 0.95871094 1.29589844 0 1 C0 0.67 0 0.34 0 0 Z " fill="#B92285" transform="translate(685,782)"/>
<path d="M0 0 C-1 2 -1 2 -3.984375 3.03515625 C-5.22703125 3.37417969 -6.4696875 3.71320312 -7.75 4.0625 C-8.98234375 4.40410156 -10.2146875 4.74570312 -11.484375 5.09765625 C-13.47567592 5.60875682 -15.47529772 6.09386757 -17.4921875 6.4921875 C-22.12893105 7.43109196 -26.66416206 8.85909322 -31.2109375 10.16015625 C-34.949413 10.98878742 -38.18850861 11.06955276 -42 11 C-42.99 11.33 -43.98 11.66 -45 12 C-45.99 11.67 -46.98 11.34 -48 11 C-48 11.66 -48 12.32 -48 13 C-49.92057292 12.93489583 -51.84114583 12.86979167 -53.76171875 12.8046875 C-56.07235319 12.88668251 -56.07235319 12.88668251 -58.29492188 14 C-61.24202837 15.08947186 -63.38998042 15.23027955 -66.51953125 15.1953125 C-68.0519043 15.18564453 -68.0519043 15.18564453 -69.61523438 15.17578125 C-70.67033203 15.15902344 -71.72542969 15.14226563 -72.8125 15.125 C-73.88693359 15.11597656 -74.96136719 15.10695313 -76.06835938 15.09765625 C-78.71246854 15.07415306 -81.35611872 15.04129575 -84 15 C-84 14.67 -84 14.34 -84 14 C-75.585 13.01 -75.585 13.01 -67 12 C-67 11.67 -67 11.34 -67 11 C-66.33282959 10.93530518 -65.66565918 10.87061035 -64.97827148 10.80395508 C-45.47107195 8.86206945 -26.0597929 6.25433663 -7.5234375 -0.3984375 C-4.6606396 -1.08090016 -2.81088519 -0.7813652 0 0 Z " fill="#D53095" transform="translate(851,780)"/>
<path d="M0 0 C1.54202616 0.45712238 3.08360214 0.91576347 4.625 1.375 C6.00945313 1.78685547 6.00945313 1.78685547 7.421875 2.20703125 C9.25707883 2.77149546 11.07400343 3.39691431 12.875 4.0625 C15.89662807 4.96898842 18.75993685 5.46245287 21.875 5.9375 C26.94053156 6.74125593 31.29253423 8.02358307 36 10 C42.55168013 12.69302189 48.3880543 14.45310731 55.4921875 14.82421875 C58.06983612 15.00489506 60.47457674 15.46467565 63 16 C64.2375 16.165 65.475 16.33 66.75 16.5 C70 17 70 17 71 18 C71.825 18 72.65 18 73.5 18 C74.325 18 75.15 18 76 18 C76.33 18.33 76.66 18.66 77 19 C78.66617115 19.04063832 80.33388095 19.042721 82 19 C82 19.66 82 20.32 82 21 C77.48875533 21.97466997 74.033929 21.8965686 69.51171875 21.03125 C67.63468262 20.6746228 67.63468262 20.6746228 65.71972656 20.31079102 C64.37540265 20.0417656 63.03133197 19.77147207 61.6875 19.5 C61.00248413 19.36439667 60.31746826 19.22879333 59.61169434 19.08908081 C42.38348375 15.66591114 25.52683838 11.16706752 9 5.1875 C8.19788086 4.8975415 7.39576172 4.60758301 6.56933594 4.30883789 C1.12720826 2.25441653 1.12720826 2.25441653 0 0 Z " fill="#AD2C95" transform="translate(644,801)"/>
<path d="M0 0 C2.28267852 2.28267852 2.9384832 4.03104004 4.1015625 7.03125 C4.50511963 8.06056641 4.90867676 9.08988281 5.32446289 10.15039062 C5.75364014 11.25576172 6.18281738 12.36113281 6.625 13.5 C16.77927111 41.08962646 16.77927111 41.08962646 32 66 C31.67 66.66 31.34 67.32 31 68 C27.46413986 64.82679218 25.41421969 62.83256305 25 58 C24.34 58 23.68 58 23 58 C15 44.05533597 15 44.05533597 15 38 C14.34 38 13.68 38 13 38 C12.66226563 37.25234375 12.32453125 36.5046875 11.9765625 35.734375 C11.53054688 34.74953125 11.08453125 33.7646875 10.625 32.75 C10.18414063 31.77546875 9.74328125 30.8009375 9.2890625 29.796875 C8.55588332 28.20609836 7.79661426 26.62534205 6.9609375 25.0859375 C5.06656127 20.97375494 4.16124951 16.48094544 3 12.1171875 C2.2418055 8.93693225 2.2418055 8.93693225 0 7 C-0.125 3.375 -0.125 3.375 0 0 Z " fill="#CC2F9B" transform="translate(950,626)"/>
<path d="M0 0 C1.21275084 3.63825253 0.71629623 4.26546797 -0.84375 7.6484375 C-1.47240967 9.02491455 -1.47240967 9.02491455 -2.11376953 10.42919922 C-2.57122559 11.40131348 -3.02868164 12.37342773 -3.5 13.375 C-3.95616699 14.36129395 -4.41233398 15.34758789 -4.88232422 16.36376953 C-8.32126548 23.73051524 -11.97495989 30.93618789 -16 38 C-16.33 38 -16.66 38 -17 38 C-17 36.35 -17 34.7 -17 33 C-18.32 33 -19.64 33 -21 33 C-21.268125 33.61875 -21.53625 34.2375 -21.8125 34.875 C-23 37 -23 37 -26 39 C-24.31651719 35.06868503 -21.67465879 31.97287867 -19 28.6875 C-14.93414632 23.60382941 -11.10957476 18.41774951 -7.5 13 C-7.09136719 12.38987061 -6.68273437 11.77974121 -6.26171875 11.15112305 C-3.89350266 7.5497911 -1.85074651 3.89131318 0 0 Z " fill="#E5409C" transform="translate(1026,640)"/>
<path d="M0 0 C3.38455184 3.10382741 4.76588981 6.73527933 6.44921875 10.92578125 C6.77919357 11.72921463 7.1091684 12.53264801 7.44914246 13.36042786 C8.53526815 16.00844116 9.61119719 18.66048087 10.6875 21.3125 C11.8237623 24.08803132 12.96283089 26.86240025 14.10205078 29.63671875 C14.88544176 31.54490321 15.6679832 33.45343664 16.44970703 35.36230469 C20.52643915 45.31067281 24.69397765 55.22011155 28.875 65.125 C29.5530397 66.73345403 30.23101983 68.34193317 30.90893555 69.95043945 C33.81297975 76.9752674 33.81297975 76.9752674 36.89996338 83.918396 C39.10382686 88.68851942 39.10382686 88.68851942 38 92 C32.64589141 80.80656672 27.74879643 69.46167328 23 58 C22.07033388 55.76301195 21.14064502 53.52603335 20.2109375 51.2890625 C17.39329604 44.50158932 14.58794772 37.70909794 11.78875732 30.91400146 C10.98893238 28.97314328 10.18812603 27.03269208 9.38720703 25.09228516 C7.83670442 21.33430474 6.29292951 17.57359616 4.75 13.8125 C4.27199951 12.65427734 3.79399902 11.49605469 3.30151367 10.30273438 C2.86685791 9.23990234 2.43220215 8.17707031 1.984375 7.08203125 C1.59991211 6.14593018 1.21544922 5.2098291 0.81933594 4.24536133 C0 2 0 2 0 0 Z " fill="#9E2494" transform="translate(854,397)"/>
<path d="M0 0 C2.10006445 2.64078474 3.62721347 5.1111864 4.91357422 8.22680664 C5.2575827 9.05189224 5.60159119 9.87697784 5.95602417 10.72706604 C6.49986252 12.05519569 6.49986252 12.05519569 7.0546875 13.41015625 C7.4381131 14.33283798 7.8215387 15.25551971 8.21658325 16.2061615 C9.44141816 19.15608555 10.65856897 22.10910181 11.875 25.0625 C13.08326269 27.98468066 14.2931676 30.90616919 15.50469971 33.82699585 C16.28203579 35.70132835 17.05773765 37.57633952 17.83172607 39.45205688 C20.16426263 45.08135345 22.60311825 50.61825192 25.32470703 56.07202148 C26 58 26 58 25 61 C19.11182602 53.07361195 13 41.99453515 13 32 C12.34 32 11.68 32 11 32 C10.67 29.69 10.34 27.38 10 25 C9.34 25 8.68 25 8 25 C7.5978125 23.948125 7.5978125 23.948125 7.1875 22.875 C6.04894221 19.97258902 6.04894221 19.97258902 4.5 17.25 C2.65021134 13.24212458 1.82505016 9.31564697 1 5 C0.690625 3.4840625 0.690625 3.4840625 0.375 1.9375 C0.25125 1.298125 0.1275 0.65875 0 0 Z " fill="#B82CA2" transform="translate(898,501)"/>
<path d="M0 0 C0.495 0.99 0.495 0.99 1 2 C-0.051875 2.556875 -1.10375 3.11375 -2.1875 3.6875 C-5.69253863 5.68635737 -8.21113319 8.06811438 -11 11 C-12.05074123 11.90959688 -13.11350765 12.8054773 -14.1875 13.6875 C-16.93501383 15.87028052 -16.93501383 15.87028052 -19 18 C-19.92039062 18.44085938 -19.92039062 18.44085938 -20.859375 18.890625 C-23.3859278 20.20000638 -25.16549171 21.81545633 -27.25 23.75 C-31.31808769 27.44703491 -35.5398253 30.79159095 -40 34 C-40 30.21307145 -38.59710652 28.8074688 -36.125 26.06640625 C-26.06497289 16.28376959 -12.53951172 6.26975586 0 0 Z " fill="#7A3FC4" transform="translate(586,222)"/>
<path d="M0 0 C3.80984844 2.77079887 4.06840752 6.62868145 5 11 C5.66 11 6.32 11 7 11 C8.17816469 14.72563248 9.34048913 18.45602389 10.5 22.1875 C10.83386719 23.24259766 11.16773438 24.29769531 11.51171875 25.38476562 C11.82753906 26.40634766 12.14335938 27.42792969 12.46875 28.48046875 C12.76201172 29.41785889 13.05527344 30.35524902 13.35742188 31.32104492 C13.99696517 33.98734758 14.12123109 36.27013569 14 39 C11.86690969 36.86690969 11.14322861 35.31797026 9.9765625 32.5625 C9.595 31.66660156 9.2134375 30.77070313 8.8203125 29.84765625 C8.42585937 28.90792969 8.03140625 27.96820313 7.625 27 C7.23828125 26.09121094 6.8515625 25.18242187 6.453125 24.24609375 C5.29003318 21.5022899 4.14429523 18.75168772 3 16 C2.60748047 15.07912598 2.21496094 14.15825195 1.81054688 13.20947266 C1.44251953 12.3282373 1.07449219 11.44700195 0.6953125 10.5390625 C0.36289551 9.75225098 0.03047852 8.96543945 -0.31201172 8.15478516 C-1.25681557 5.19565145 -0.92504646 2.92931378 0 0 Z " fill="#C636B0" transform="translate(1006,363)"/>
<path d="M0 0 C0.33 0.66 0.66 1.32 1 2 C0.29959272 3.54089602 -0.40295995 5.08083645 -1.11328125 6.6171875 C-2.2442946 9.65647447 -2.81558097 12.69324847 -3.4375 15.875 C-4.4818928 21.11371898 -5.87083549 25.59161044 -8.328125 30.328125 C-8.66070312 31.15570313 -8.66070312 31.15570313 -9 32 C-8.67 32.66 -8.34 33.32 -8 34 C-8.433125 34.78375 -8.86625 35.5675 -9.3125 36.375 C-11.65844797 41.41444379 -12.24704612 46.52558241 -13 52 C-13.99 52 -14.98 52 -16 52 C-15.42647141 44.87501017 -13.91740994 38.4027507 -11.875 31.5625 C-11.56804199 30.52150146 -11.26108398 29.48050293 -10.94482422 28.40795898 C-3.41935898 3.41935898 -3.41935898 3.41935898 0 0 Z " fill="#793FC6" transform="translate(463,366)"/>
<path d="M0 0 C2.31 0 4.62 0 7 0 C7 0.66 7 1.32 7 2 C8.40185547 2.29583984 8.40185547 2.29583984 9.83203125 2.59765625 C13 4 13 4 14.57421875 6.93359375 C14.94160156 8.08988281 15.30898438 9.24617187 15.6875 10.4375 C17.41566289 15.82065722 17.41566289 15.82065722 21 20 C23.0022368 24.24474202 24.51833406 28.55500217 26 33 C27.86790654 37.58486152 29.97097803 41.95372398 32.328125 46.30078125 C32.54984375 46.86152344 32.7715625 47.42226563 33 48 C32.505 48.99 32.505 48.99 32 50 C28.10827498 45.69783099 25.69336069 41.72479506 23.51953125 36.37109375 C23.22060471 35.65897232 22.92167816 34.94685089 22.61369324 34.21315002 C21.67003038 31.9585894 20.74111389 29.69829444 19.8125 27.4375 C19.17869427 25.91691725 18.54393676 24.39673085 17.90820312 22.87695312 C13.44166141 12.17581317 13.44166141 12.17581317 11.9128418 8.10571289 C11.17603283 5.90459761 11.17603283 5.90459761 9.3125 4.8125 C6.24341053 3.73417127 3.14047812 2.84551334 0 2 C0 1.34 0 0.68 0 0 Z " fill="#C72E9E" transform="translate(846,613)"/>
<path d="M0 0 C1.03058281 -0.00287018 1.03058281 -0.00287018 2.08198547 -0.00579834 C3.5370012 -0.00715868 4.99202912 -0.00347275 6.44702148 0.00488281 C8.65051363 0.01550321 10.8531752 0.00502562 13.05664062 -0.0078125 C19.94317274 -0.01368362 26.38160382 0.0836031 32.98828125 2.265625 C32.86328125 4.453125 32.86328125 4.453125 31.98828125 7.265625 C30.02642709 8.97702969 28.02525742 10.64435825 25.98828125 12.265625 C24.61573537 14.41542997 24.61573537 14.41542997 23.98828125 16.265625 C22.99828125 15.605625 22.00828125 14.945625 20.98828125 14.265625 C23.95828125 10.965625 26.92828125 7.665625 29.98828125 4.265625 C25.83064671 3.22621636 21.97277304 3.04184921 17.72265625 2.94921875 C16.92925842 2.92843765 16.1358606 2.90765656 15.31842041 2.88624573 C12.79179281 2.82102527 10.26506404 2.76199356 7.73828125 2.703125 C6.02212509 2.6599136 4.30597903 2.61629847 2.58984375 2.57226562 C-1.61057421 2.46537217 -5.81109364 2.36402771 -10.01171875 2.265625 C-6.31147655 -0.20120313 -4.41466288 0.00781702 0 0 Z " fill="#E12FA2" transform="translate(911.01171875,719.734375)"/>
<path d="M0 0 C13.14890774 11.95355249 21.85682281 30.41990884 29.8125 46.0625 C30.25118408 46.91312012 30.68986816 47.76374023 31.1418457 48.64013672 C31.53460693 49.43049316 31.92736816 50.22084961 32.33203125 51.03515625 C32.67983643 51.7300415 33.0276416 52.42492676 33.38598633 53.14086914 C34 55 34 55 33 58 C31.45612211 55.08449884 29.91517342 52.16745968 28.375 49.25 C27.68929932 47.95340454 27.68929932 47.95340454 26.98974609 46.63061523 C23.98248713 40.92512056 21.09070899 35.18724768 18.3515625 29.34765625 C17.10045692 26.91715909 17.10045692 26.91715909 15.0234375 25.12109375 C12.87074553 22.86450738 11.98572123 20.75097154 10.85302734 17.87744141 C9.31780279 14.49854133 7.03589956 11.64040299 4.8125 8.6875 C0 2.25521558 0 2.25521558 0 0 Z " fill="#A92896" transform="translate(969,293)"/>
<path d="M0 0 C8.24767131 3.41795387 14.02109416 13.13804345 19.37109375 19.96875 C20.9880648 22.06090953 20.9880648 22.06090953 23 24 C23.95326921 25.44807464 24.88883754 26.90786332 25.8125 28.375 C27.72286076 31.31329444 29.07790779 33.06097131 31.875 35.25 C34 37 34 37 34.3125 39.75 C34.209375 40.4925 34.10625 41.235 34 42 C30.28520375 38.48175382 27.31624874 34.79612966 24.4375 30.5625 C19.12102973 22.93094026 13.1591293 15.9577415 7 9 C5.58275796 7.39634164 4.16597776 5.79227479 2.75 4.1875 C2.20859375 3.58292969 1.6671875 2.97835938 1.109375 2.35546875 C0 1 0 1 0 0 Z " fill="#AD2A9B" transform="translate(958,306)"/>
<path d="M0 0 C0 0.66 0 1.32 0 2 C-0.59683594 2.31710937 -1.19367187 2.63421875 -1.80859375 2.9609375 C-6.40725056 5.43450922 -10.94740481 7.94908517 -15.41015625 10.66015625 C-16.16820557 11.11793457 -16.92625488 11.57571289 -17.70727539 12.04736328 C-19.22598819 12.96819713 -20.73961334 13.89747893 -22.24780273 14.83544922 C-23.30076538 15.47184326 -23.30076538 15.47184326 -24.375 16.12109375 C-25.31472656 16.70008423 -25.31472656 16.70008423 -26.2734375 17.29077148 C-28 18 -28 18 -31 17 C-29.66666667 16 -28.33333333 15 -27 14 C-26.45730469 13.56429687 -25.91460938 13.12859375 -25.35546875 12.6796875 C-22.06800049 10.33539007 -18.58452126 8.40559392 -15.0625 6.4375 C-14.35931641 6.03853516 -13.65613281 5.63957031 -12.93164062 5.22851562 C-3.61807439 0 -3.61807439 0 0 0 Z " fill="#DC2E8D" transform="translate(912,750)"/>
<path d="M0 0 C0.6875 1.8125 0.6875 1.8125 1 4 C-0.125 5.4375 -0.125 5.4375 -2 7 C-4.5609556 9.49529007 -6.87474958 11.82222521 -8.9375 14.75 C-11.5197685 17.56702018 -13.26270878 17.74518469 -17 18 C-17 17.34 -17 16.68 -17 16 C-17.639375 15.7525 -18.27875 15.505 -18.9375 15.25 C-21 14 -21 14 -21.75 11.875 C-21.8325 11.25625 -21.915 10.6375 -22 10 C-21.1646875 10.99 -21.1646875 10.99 -20.3125 12 C-18.20436433 14.13628173 -18.20436433 14.13628173 -15.74609375 14.52734375 C-11.45240796 13.7028095 -9.51027252 10.792966 -6.75 7.5625 C-6.20859375 6.95083984 -5.6671875 6.33917969 -5.109375 5.70898438 C-3.72958877 4.14810121 -2.3637043 2.57495298 -1 1 C-0.67 0.67 -0.34 0.34 0 0 Z " fill="#E03598" transform="translate(999,679)"/>
<path d="M0 0 C2.3349906 2.94456779 4.10587579 5.93617251 5.8125 9.28125 C6.33070313 10.28800781 6.84890625 11.29476562 7.3828125 12.33203125 C8.4609375 14.44401042 9.5390625 16.55598958 10.6171875 18.66796875 C11.13539063 19.67472656 11.65359375 20.68148437 12.1875 21.71875 C12.88939453 23.09450195 12.88939453 23.09450195 13.60546875 24.49804688 C14.91074109 26.83985901 16.33644923 28.90215943 18 31 C17.67 31.66 17.34 32.32 17 33 C13.46413986 29.82679218 11.41421969 27.83256305 11 23 C10.34 23 9.68 23 9 23 C0 8.06147541 0 8.06147541 0 0 Z " fill="#D72E89" transform="translate(964,661)"/>
<path d="M0 0 C3 3.75 3 3.75 3 6 C3.99 6.33 4.98 6.66 6 7 C10.01898311 14.27815846 12.71243197 21.66052712 13 30 C9.21402799 25.30550466 7.17998889 19.9391254 4.8125 14.4375 C4.34908203 13.38369141 3.88566406 12.32988281 3.40820312 11.24414062 C2.97056641 10.23416016 2.53292969 9.22417969 2.08203125 8.18359375 C1.68218018 7.26118896 1.2823291 6.33878418 0.87036133 5.38842773 C0 3 0 3 0 0 Z " fill="#CC2A91" transform="translate(875,658)"/>
<path d="M0 0 C0.66 0.33 1.32 0.66 2 1 C1.14277344 1.845625 0.28554688 2.69125 -0.59765625 3.5625 C-1.75319624 4.70773624 -2.90810281 5.85361182 -4.0625 7 C-4.65796631 7.59071289 -5.25343262 8.18142578 -5.86694336 8.79003906 C-9.64460278 12.56512128 -13.21589343 16.41847552 -16.53515625 20.609375 C-18.28923262 22.27457816 -19.64169941 22.61455732 -22 23 C-20.67461876 19.02385628 -18.98769086 16.88810116 -16 14 C-16 13.34 -16 12.68 -16 12 C-15.12085938 11.77570313 -14.24171875 11.55140625 -13.3359375 11.3203125 C-9.44431362 9.78006792 -7.49199603 7.89696879 -4.625 4.875 C-3.75101563 3.96492188 -2.87703125 3.05484375 -1.9765625 2.1171875 C-1.32429687 1.41851562 -0.67203125 0.71984375 0 0 Z " fill="#7938BC" transform="translate(576,300)"/>
<path d="M0 0 C0.33 0.66 0.66 1.32 1 2 C1.66 2 2.32 2 3 2 C3.06316406 2.55042969 3.12632812 3.10085938 3.19140625 3.66796875 C4.3782604 11.72608378 6.96249741 19.18455852 9.69946289 26.82495117 C10.00875732 27.70771729 10.31805176 28.5904834 10.63671875 29.5 C10.92248779 30.2940625 11.20825684 31.088125 11.50268555 31.90625 C12 34 12 34 11 37 C7.73824236 28.67186967 4.67078398 20.32788029 2.125 11.75 C1.91012939 11.03593994 1.69525879 10.32187988 1.47387695 9.58618164 C0.4962928 6.21329423 0 3.54641451 0 0 Z " fill="#7B2EA4" transform="translate(449,578)"/>
<path d="M0 0 C2.31 0 4.62 0 7 0 C7 0.66 7 1.32 7 2 C7.93199219 2.19980469 8.86398437 2.39960937 9.82421875 2.60546875 C13 4 13 4 14.64453125 6.86328125 C15.02996094 8.00152344 15.41539062 9.13976562 15.8125 10.3125 C16.21082031 11.44300781 16.60914063 12.57351563 17.01953125 13.73828125 C17.84719461 16.49166334 18.50634895 19.17079559 19 22 C16.70351643 19.10414095 14.95652443 16.1827969 13.3125 12.875 C12.65701172 11.57175781 12.65701172 11.57175781 11.98828125 10.2421875 C11 8 11 8 11 6 C7.49461443 4.03698408 3.86648272 3.04097612 0 2 C0 1.34 0 0.68 0 0 Z " fill="#BC2994" transform="translate(846,613)"/>
<path d="M0 0 C-3.37140024 1.32187995 -6.74768941 2.63080245 -10.125 3.9375 C-11.07632813 4.31068359 -12.02765625 4.68386719 -13.0078125 5.06835938 C-17.65981859 6.86132006 -22.0023923 8.4699507 -27 9 C-25 7 -25 7 -22.4375 6.5 C-21.633125 6.335 -20.82875 6.17 -20 6 C-19.67 5.34 -19.34 4.68 -19 4 C-13.20071431 1.10581788 -6.39894665 -2.13298222 0 0 Z " fill="#D92C83" transform="translate(876,802)"/>
<path d="M0 0 C0.33 0.66 0.66 1.32 1 2 C-3.9672253 9.68863066 -9.14306954 16.9592219 -15 24 C-15 18.01988354 -10.37781988 12.44343035 -6.375 8.25 C-5.59125 7.5075 -4.8075 6.765 -4 6 C-2.56448797 4.05013512 -1.28897723 2.05281559 0 0 Z " fill="#DC3580" transform="translate(998,695)"/>
<path d="M0 0 C1.18872873 3.5661862 0.47086783 4.64493323 -1.0546875 7.9296875 C-2.06949471 10.15219916 -2.93942485 12.40576579 -3.8125 14.6875 C-6.17076613 20.64281018 -9.06738398 26.31072492 -12 32 C-12.33 31.34 -12.66 30.68 -13 30 C-12.25621116 27.88406832 -11.40461344 25.80575699 -10.5078125 23.75 C-10.24241669 23.13608398 -9.97702087 22.52216797 -9.70358276 21.88964844 C-8.85134077 19.92317165 -7.98826449 17.96165938 -7.125 16 C-6.55007821 14.67738871 -5.97585062 13.35447544 -5.40234375 12.03125 C-1.33881679 2.67763357 -1.33881679 2.67763357 0 0 Z " fill="#7D43DE" transform="translate(667,414)"/>
<path d="M0 0 C7.875 0.875 7.875 0.875 9 2 C9.825 2 10.65 2 11.5 2 C12.325 2 13.15 2 14 2 C14.33 2.33 14.66 2.66 15 3 C16.66617115 3.04063832 18.33388095 3.042721 20 3 C20 3.66 20 4.32 20 5 C15.66715574 5.90159484 12.11992349 5.9987317 7.75 5.3125 C6.71359375 5.16425781 5.6771875 5.01601563 4.609375 4.86328125 C2 4 2 4 0.640625 1.91796875 C0.42921875 1.28503906 0.2178125 0.65210938 0 0 Z " fill="#C23FAA" transform="translate(706,817)"/>
<path d="M0 0 C0.87398437 0.31710937 0.87398437 0.31710937 1.765625 0.640625 C0.5590625 1.0428125 0.5590625 1.0428125 -0.671875 1.453125 C-1.5175 1.845 -2.363125 2.236875 -3.234375 2.640625 C-3.564375 3.630625 -3.894375 4.620625 -4.234375 5.640625 C-9.24477358 8.29920384 -13.61084598 9.14733298 -19.234375 9.640625 C-17.76155464 6.69498428 -15.45441096 6.59927301 -12.49609375 5.57421875 C-9.40050076 4.29641785 -6.80450365 2.48030428 -4.09375 0.53125 C-2.234375 -0.359375 -2.234375 -0.359375 0 0 Z " fill="#DD2E88" transform="translate(889.234375,792.359375)"/>
<path d="M0 0 C5.445 0.495 5.445 0.495 11 1 C10.67 1.66 10.34 2.32 10 3 C3.99696082 4.08464003 -1.91517008 4.12325483 -8 4.0625 C-8.87011719 4.05798828 -9.74023438 4.05347656 -10.63671875 4.04882812 C-12.75784293 4.0371736 -14.8789311 4.01924357 -17 4 C-17 3.67 -17 3.34 -17 3 C-8.585 2.01 -8.585 2.01 0 1 C0 0.67 0 0.34 0 0 Z " fill="#D339AD" transform="translate(784,791)"/>
<path d="M0 0 C-3.23096633 1.7397511 -6.46068295 3.02103997 -10 4 C-10.99 3.67 -11.98 3.34 -13 3 C-13 3.66 -13 4.32 -13 5 C-17.29 4.67 -21.58 4.34 -26 4 C-26 3.67 -26 3.34 -26 3 C-22.79279138 2.4926043 -19.58407837 1.995421 -16.375 1.5 C-15.47136719 1.35691406 -14.56773437 1.21382812 -13.63671875 1.06640625 C-9.04560134 0.36265833 -4.66168185 -0.18584778 0 0 Z " fill="#CC2C83" transform="translate(816,788)"/>
<path d="M0 0 C2 1 2 1 2.74609375 3.19921875 C3.05460513 6.60233664 2.31938127 8.65125318 1.0625 11.8125 C0.68222656 12.78832031 0.30195312 13.76414062 -0.08984375 14.76953125 C-0.54037109 15.87361328 -0.54037109 15.87361328 -1 17 C1.64 17.33 4.28 17.66 7 18 C7 18.33 7 18.66 7 19 C3.37 19 -0.26 19 -4 19 C-3.34 16.03 -2.68 13.06 -2 10 C-1.67 10 -1.34 10 -1 10 C-0.67 6.7 -0.34 3.4 0 0 Z " fill="#DB2FA4" transform="translate(893,703)"/>
<path d="M0 0 C1 3 1 3 0.00390625 5.26171875 C-0.47175781 6.06222656 -0.94742188 6.86273437 -1.4375 7.6875 C-1.91058594 8.49574219 -2.38367188 9.30398438 -2.87109375 10.13671875 C-3.42990234 11.05904297 -3.42990234 11.05904297 -4 12 C-4.33 12 -4.66 12 -5 12 C-5 10.35 -5 8.7 -5 7 C-6.32 7 -7.64 7 -9 7 C-9.268125 7.61875 -9.53625 8.2375 -9.8125 8.875 C-11 11 -11 11 -14 13 C-12.33248852 9.05860922 -9.77289351 6.2107188 -7 3 C-4 4 -4 4 -3 6 C-2.01 4.02 -1.02 2.04 0 0 Z " fill="#DD3684" transform="translate(1014,666)"/>
<path d="M0 0 C0.33 0.66 0.66 1.32 1 2 C0.33333333 3.33333333 -0.33333333 4.66666667 -1 6 C-1.144375 7.010625 -1.28875 8.02125 -1.4375 9.0625 C-2.02933102 12.15317311 -2.57553214 13.10259037 -5 15 C-5.66 14.34 -6.32 13.68 -7 13 C-7 7.67899997 -3.18550405 3.92586585 0 0 Z " fill="#E53B99" transform="translate(1015,658)"/>
<path d="M0 0 C0.33 0.66 0.66 1.32 1 2 C-0.051875 2.556875 -1.10375 3.11375 -2.1875 3.6875 C-4.78774146 5.15992589 -6.40177939 6.40177939 -8.5625 8.5625 C-11.20501474 11.20501474 -13.54115373 12.61646149 -17 14 C-17.66 13.67 -18.32 13.34 -19 13 C-16.58606009 11.20455714 -14.16902994 9.41356187 -11.75 7.625 C-11.06808594 7.11710938 -10.38617187 6.60921875 -9.68359375 6.0859375 C-9.01972656 5.59609375 -8.35585938 5.10625 -7.671875 4.6015625 C-7.0644043 4.15119629 -6.45693359 3.70083008 -5.83105469 3.23681641 C-3.95339275 1.96851836 -2.04636015 0.96787304 0 0 Z " fill="#7739BD" transform="translate(586,222)"/>
<path d="M0 0 C1.32 0.33 2.64 0.66 4 1 C4.50806447 2.72681437 5.00610467 4.45657979 5.5 6.1875 C5.7784375 7.15042969 6.056875 8.11335938 6.34375 9.10546875 C6.96677608 11.85345876 7.12302812 14.19598416 7 17 C4.55213773 14.55213773 3.69919356 12.25682658 2.375 9.0625 C1.70597656 7.47115234 1.70597656 7.47115234 1.0234375 5.84765625 C0 3 0 3 0 0 Z " fill="#C6388C" transform="translate(1013,385)"/>
<path d="M0 0 C2.82619863 2.82619863 3.81363347 6.26200296 5.1875 9.9375 C5.47302734 10.66646484 5.75855469 11.39542969 6.05273438 12.14648438 C8.12105341 17.63683977 8.12105341 17.63683977 7 21 C3.6891466 18.40889734 3.56580227 16.04144479 3 12 C2.3400321 10.33066942 1.67441131 8.6635479 1 7 C1 6.01 1 5.02 1 4 C0.34 4 -0.32 4 -1 4 C-0.67 2.68 -0.34 1.36 0 0 Z " fill="#7B2EAC" transform="translate(506,608)"/>
<path d="M0 0 C0 7.71100499 -5.6088957 12.57044781 -10.72265625 17.7421875 C-11.35494141 18.36480469 -11.35494141 18.36480469 -12 19 C-10.42686828 14.27156386 -7.79358765 10.6566157 -4.875 6.6875 C-4.17310547 5.71973633 -4.17310547 5.71973633 -3.45703125 4.73242188 C-2.3094071 3.15151106 -1.15534523 1.57527699 0 0 Z " fill="#7839BB" transform="translate(499,302)"/>
<path d="M0 0 C0.66 0.33 1.32 0.66 2 1 C-3.45993937 5.97966692 -8.99926777 10.68339698 -15 15 C-15 12 -15 12 -13.62304688 10.55786133 C-12.68041992 9.82732544 -12.68041992 9.82732544 -11.71875 9.08203125 C-11.04199219 8.55029297 -10.36523438 8.01855469 -9.66796875 7.47070312 C-8.95253906 6.92349609 -8.23710938 6.37628906 -7.5 5.8125 C-6.78457031 5.25369141 -6.06914063 4.69488281 -5.33203125 4.11914062 C-3.56094634 2.73769439 -1.78360574 1.36521738 0 0 Z " fill="#7649E5" transform="translate(561,241)"/>
<path d="M0 0 C2.08268593 -0.08126087 4.16628658 -0.13930839 6.25 -0.1875 C7.99023438 -0.23970703 7.99023438 -0.23970703 9.765625 -0.29296875 C13.22268407 0.02017066 14.51565563 0.65709108 17 3 C15.06325815 3.19517554 13.12555991 3.38087873 11.1875 3.5625 C10.10855469 3.66691406 9.02960937 3.77132812 7.91796875 3.87890625 C5 4 5 4 2 3 C2 2.34 2 1.68 2 1 C1.34 0.67 0.68 0.34 0 0 Z " fill="#C831A0" transform="translate(741,792)"/>
<path d="M0 0 C-2.86192991 1.90795327 -5.27790075 2.92350524 -8.5 4.0625 C-9.4590625 4.40410156 -10.418125 4.74570313 -11.40625 5.09765625 C-15.53264633 6.53319473 -18.61998297 7.09733371 -23 7 C-20.20213856 4.20213856 -16.88195813 3.5066951 -13.1875 2.375 C-12.47529297 2.14554688 -11.76308594 1.91609375 -11.02929688 1.6796875 C-7.24793339 0.50435158 -4.00837511 -0.29925001 0 0 Z " fill="#7B37BA" transform="translate(670,187)"/>
<path d="M0 0 C4.62 0 9.24 0 14 0 C14 0.99 14 1.98 14 3 C12.41753293 3.08153933 10.83383727 3.13943557 9.25 3.1875 C8.36828125 3.22230469 7.4865625 3.25710938 6.578125 3.29296875 C4 3 4 3 0 0 Z " fill="#BF289B" transform="translate(726,791)"/>
<path d="M0 0 C0.33 0.66 0.66 1.32 1 2 C0.19555664 3.69580078 0.19555664 3.69580078 -1.08984375 5.6953125 C-1.54423828 6.41074219 -1.99863281 7.12617188 -2.46679688 7.86328125 C-2.95212891 8.60964844 -3.43746094 9.35601562 -3.9375 10.125 C-4.41896484 10.87910156 -4.90042969 11.63320313 -5.39648438 12.41015625 C-6.59057797 14.27814425 -7.79194768 16.14102066 -9 18 C-10 16 -10 16 -9.36328125 13.9765625 C-7.39507017 9.57186707 -5.70723993 6.21294127 -2 3 C-1.34 2.01 -0.68 1.02 0 0 Z " fill="#7932B1" transform="translate(536,348)"/>
<path d="M0 0 C1.42600325 4.27800976 -0.54362936 6.86765922 -2.4375 10.6875 C-2.77587891 11.38939453 -3.11425781 12.09128906 -3.46289062 12.81445312 C-4.29981348 14.54723706 -5.14877393 16.27419752 -6 18 C-6.66 17.01 -7.32 16.02 -8 15 C-6.38102741 11.69918209 -4.64075691 8.47442567 -2.875 5.25 C-2.33617187 4.26515625 -1.79734375 3.2803125 -1.2421875 2.265625 C-0.83226562 1.51796875 -0.42234375 0.7703125 0 0 Z " fill="#D83F7D" transform="translate(1026,640)"/>
<path d="M0 0 C0.66 0 1.32 0 2 0 C1.56474352 4.61371865 1.29558754 6.83365119 -2 10 C-3.19599068 12.03232242 -3.19599068 12.03232242 -4.1875 14.1875 C-4.53167969 14.90292969 -4.87585938 15.61835938 -5.23046875 16.35546875 C-5.48441406 16.89816406 -5.73835937 17.44085938 -6 18 C-6.66 17.67 -7.32 17.34 -8 17 C-5.36 11.39 -2.72 5.78 0 0 Z " fill="#7F49DB" transform="translate(519,373)"/>
<path d="M0 0 C0 3.98056148 -1.442233 5.0159385 -4 8 C-4.70125 8.9075 -5.4025 9.815 -6.125 10.75 C-8 13 -8 13 -10 14 C-9.67 12.35 -9.34 10.7 -9 9 C-8.34 9 -7.68 9 -7 9 C-6.773125 8.2575 -6.54625 7.515 -6.3125 6.75 C-4.75592468 3.48860409 -2.91481146 2.07105025 0 0 Z " fill="#7B42D1" transform="translate(541,341)"/>
<path d="M0 0 C5.86809507 0.52393706 10.54873741 1.76108858 16 4 C12.82633241 5.92299676 11.04652733 6.19329046 7.4375 5.375 C4.33159308 4.59852327 3.21487613 4.22138753 0.9375 1.875 C0.628125 1.25625 0.31875 0.6375 0 0 Z " fill="#B034B0" transform="translate(664,807)"/>
<path d="M0 0 C1 1 2 2 3 3 C3.680625 3.515625 4.36125 4.03125 5.0625 4.5625 C8.00370576 8.2627266 8.33315134 12.40225394 9 17 C6.59124922 13.94746898 4.67456202 10.78648153 2.8125 7.375 C2.28269531 6.41335938 1.75289063 5.45171875 1.20703125 4.4609375 C0 2 0 2 0 0 Z " fill="#8038B2" transform="translate(472,641)"/>
<path d="M0 0 C2.60582854 2.60582854 3.75542053 5.60496684 5.1875 8.9375 C5.47302734 9.57107422 5.75855469 10.20464844 6.05273438 10.85742188 C8.1198489 15.6404533 8.1198489 15.6404533 7 19 C4.1398269 16.1398269 3.22254523 12.60815162 1.875 8.875 C1.59785156 8.12089844 1.32070313 7.36679687 1.03515625 6.58984375 C0.35183 4.72836879 -0.32473389 2.86441398 -1 1 C-0.67 0.67 -0.34 0.34 0 0 Z " fill="#A32A9A" transform="translate(875,446)"/>
<path d="M0 0 C1.32 0 2.64 0 4 0 C4.36923077 4.55384615 4.36923077 4.55384615 2.5 6.8125 C2.005 7.204375 1.51 7.59625 1 8 C0.34 7.01 -0.32 6.02 -1 5 C-2.32 5.99 -3.64 6.98 -5 8 C-3.62901008 5.04709864 -2.22467373 2.39580248 0 0 Z M1 2 C0.67 2.66 0.34 3.32 0 4 C0.66 4 1.32 4 2 4 C1.67 3.34 1.34 2.68 1 2 Z " fill="#EA39A9" transform="translate(1005,673)"/>
<path d="M0 0 C2.24151882 2.24151882 2.96301325 4.0067112 4.125 6.9375 C4.47820313 7.81277344 4.83140625 8.68804688 5.1953125 9.58984375 C6 12 6 12 6 15 C5.01 14.67 4.02 14.34 3 14 C1.875 11 1.875 11 1 8 C0.67 7.67 0.34 7.34 0 7 C-0.04092937 4.66702567 -0.04241723 2.33294775 0 0 Z " fill="#C42791" transform="translate(950,626)"/>
<path d="M0 0 C0.71484375 1.546875 0.71484375 1.546875 1 4 C-0.05391226 6.53857885 -1.13965574 8.84495527 -2.4375 11.25 C-2.77587891 11.8996875 -3.11425781 12.549375 -3.46289062 13.21875 C-4.29786887 14.81814494 -5.14753114 16.40985859 -6 18 C-7.26426661 14.20720018 -6.40145184 12.65934648 -5 9 C-3.46312312 5.92624624 -1.71085145 2.98019285 0 0 Z " fill="#7D47DE" transform="translate(693,353)"/>
<path d="M0 0 C2.31 0 4.62 0 7 0 C3.99272617 2.48241943 1.1737655 3.84321918 -2.5 5.125 C-3.4384375 5.45757812 -4.376875 5.79015625 -5.34375 6.1328125 C-7.55337355 6.8541896 -9.7368377 7.4769106 -12 8 C-12 7.34 -12 6.68 -12 6 C-11.21753906 5.73445312 -10.43507813 5.46890625 -9.62890625 5.1953125 C-8.61699219 4.84210938 -7.60507812 4.48890625 -6.5625 4.125 C-5.55316406 3.77695313 -4.54382813 3.42890625 -3.50390625 3.0703125 C-0.86028249 2.25944907 -0.86028249 2.25944907 0 0 Z " fill="#7948E0" transform="translate(646,193)"/>
<path d="M0 0 C0.66 0.33 1.32 0.66 2 1 C1 4 1 4 -1.28515625 5.38671875 C-2.20167969 5.81597656 -3.11820313 6.24523437 -4.0625 6.6875 C-4.98160156 7.12449219 -5.90070312 7.56148437 -6.84765625 8.01171875 C-7.55792969 8.33785156 -8.26820313 8.66398438 -9 9 C-9.33 8.34 -9.66 7.68 -10 7 C-8.35 6.34 -6.7 5.68 -5 5 C-5 4.34 -5 3.68 -5 3 C-2.625 1.3125 -2.625 1.3125 0 0 Z " fill="#E63799" transform="translate(930,766)"/>
<path d="M0 0 C0.578125 1.90234375 0.578125 1.90234375 1 4 C-0.25 5.5625 -0.25 5.5625 -2 7 C-2.515625 7.556875 -3.03125 8.11375 -3.5625 8.6875 C-5 10 -5 10 -7 10 C-6.42424336 6.64749299 -5.40693737 5.06181371 -2.9375 2.75 C-2.38964844 2.22921875 -1.84179688 1.7084375 -1.27734375 1.171875 C-0.64505859 0.59179688 -0.64505859 0.59179688 0 0 Z " fill="#DE2E89" transform="translate(999,679)"/>
<path d="M0 0 C-1 2 -1 2 -4.25 3.125 C-7.37700635 3.85463482 -9.82622905 4.19234975 -13 4 C-12.67 3.01 -12.34 2.02 -12 1 C-7.64334521 -0.67563646 -4.50462014 -1.36503641 0 0 Z " fill="#DA3C9B" transform="translate(851,780)"/>
<path d="M0 0 C-5.59579736 3.39374748 -10.56917213 5.71383443 -17 7 C-14.53113696 4.1641438 -11.9005012 2.80399248 -8.5 1.25 C-7.5409375 0.80140625 -6.581875 0.3528125 -5.59375 -0.109375 C-3 -1 -3 -1 0 0 Z " fill="#D72777" transform="translate(887,765)"/>
<path d="M0 0 C1.10408478 3.31225434 0.88103713 4.6470723 0.1875 8 C0.01605469 8.86625 -0.15539062 9.7325 -0.33203125 10.625 C-1 13 -1 13 -3 16 C-3.0810206 13.89646505 -3.13919907 11.79204048 -3.1875 9.6875 C-3.22230469 8.51574219 -3.25710938 7.34398437 -3.29296875 6.13671875 C-3 3 -3 3 -1.48828125 1.08203125 C-0.99714844 0.72496094 -0.50601562 0.36789062 0 0 Z " fill="#7A44D3" transform="translate(447,423)"/>
<path d="M0 0 C0 3.99282941 -1.47808076 5.15331592 -4 8.1875 C-4.7425 9.08855469 -5.485 9.98960937 -6.25 10.91796875 C-6.8275 11.60503906 -7.405 12.29210937 -8 13 C-8.33 11.68 -8.66 10.36 -9 9 C-8.2575 8.443125 -7.515 7.88625 -6.75 7.3125 C-4.08292005 5.06972822 -2.08443768 2.77925025 0 0 Z " fill="#7B34B8" transform="translate(554,324)"/>
<path d="M0 0 C3.40195976 1.45798275 5.40354539 3.40354539 8 6 C9.63978318 7.04349839 11.30094366 8.05607981 13 9 C12.67 9.99 12.34 10.98 12 12 C10.37133456 10.56665422 8.74719006 9.12817021 7.125 7.6875 C6.22007812 6.88699219 5.31515625 6.08648437 4.3828125 5.26171875 C2 3 2 3 0 0 Z " fill="#A02DA7" transform="translate(945,294)"/>
<path d="M0 0 C0.33 0.66 0.66 1.32 1 2 C1.66 2 2.32 2 3 2 C3.66 5.96 4.32 9.92 5 14 C4.01 14.495 4.01 14.495 3 15 C2.49363393 13.25183142 1.99515381 11.50137737 1.5 9.75 C1.2215625 8.77546875 0.943125 7.8009375 0.65625 6.796875 C0 4 0 4 0 0 Z " fill="#7E3CB6" transform="translate(449,578)"/>
<path d="M0 0 C0 3 0 3 -1.96875 5.26171875 C-2.8040625 6.06222656 -3.639375 6.86273437 -4.5 7.6875 C-5.3353125 8.49574219 -6.170625 9.30398438 -7.03125 10.13671875 C-7.6809375 10.75160156 -8.330625 11.36648438 -9 12 C-9.66 11.34 -10.32 10.68 -11 10 C-10.05125 9.2575 -9.1025 8.515 -8.125 7.75 C-5.61440368 5.68037493 -4.37491274 3.96135052 -3 1 C-2.01 0.67 -1.02 0.34 0 0 Z " fill="#EC37A7" transform="translate(965,735)"/>
<path d="M0 0 C-2.80472516 3.29967665 -6.16918209 5.08459104 -10 7 C-10.99 6.67 -11.98 6.34 -13 6 C-11.66666667 5 -10.33333333 4 -9 3 C-8.360625 2.443125 -7.72125 1.88625 -7.0625 1.3125 C-4.53765285 -0.29422092 -2.93761795 -0.2448015 0 0 Z " fill="#DF379D" transform="translate(894,761)"/>
<path d="M0 0 C2.64 0.33 5.28 0.66 8 1 C7.01 1.33 6.02 1.66 5 2 C5.99 4.97 6.98 7.94 8 11 C4.68079844 7.68079844 2.10316581 4.20633161 0 0 Z " fill="#7B47E1" transform="translate(700,288)"/>
<path d="M0 0 C-0.66 1.32 -1.32 2.64 -2 4 C-2.99 4 -3.98 4 -5 4 C-7.00309329 4.31421071 -9.00371336 4.6451046 -11 5 C-11 4.34 -11 3.68 -11 3 C-9.54293274 2.49632243 -8.08429904 1.99717444 -6.625 1.5 C-5.81289063 1.2215625 -5.00078125 0.943125 -4.1640625 0.65625 C-2 0 -2 0 0 0 Z " fill="#D62887" transform="translate(858,776)"/>
<path d="M0 0 C4.455 0.99 4.455 0.99 9 2 C9 2.99 9 3.98 9 5 C6.03 4.505 6.03 4.505 3 4 C3 3.34 3 2.68 3 2 C2.01 1.67 1.02 1.34 0 1 C0 0.67 0 0.34 0 0 Z " fill="#8A37C6" transform="translate(851,237)"/>
<path d="M0 0 C-4.455 2.97 -4.455 2.97 -9 6 C-9.66 5.67 -10.32 5.34 -11 5 C-10.375 3.125 -10.375 3.125 -9 1 C-5.36656983 -0.62344752 -3.82788944 -1.27596315 0 0 Z " fill="#7531B7" transform="translate(626,264)"/>
<path d="M0 0 C6.14587738 0.2410148 6.14587738 0.2410148 8.578125 2.40234375 C9.78844931 3.88046971 10.90220903 5.43647953 12 7 C7.39104317 5.68315519 3.85859765 3.84801255 0 1 C0 0.67 0 0.34 0 0 Z " fill="#9129AE" transform="translate(891,256)"/>
<path d="M0 0 C0.33 0 0.66 0 1 0 C1.31563182 5.26053037 0.66590937 8.44573816 -2 13 C-3.18771723 9.57056481 -2.80226223 7.62215325 -1.5625 4.25 C-1.27503906 3.45078125 -0.98757813 2.6515625 -0.69140625 1.828125 C-0.46324219 1.22484375 -0.23507812 0.6215625 0 0 Z " fill="#7836B5" transform="translate(454,389)"/>
<path d="M0 0 C-3.96 3.465 -3.96 3.465 -8 7 C-8.66 6.67 -9.32 6.34 -10 6 C-8.45899296 2.91798591 -7.51635481 1.27706844 -4.4375 -0.375 C-2 -1 -2 -1 0 0 Z " fill="#7A35B5" transform="translate(601,281)"/>
<path d="M0 0 C2.64 0.33 5.28 0.66 8 1 C8 1.66 8 2.32 8 3 C8.99 3.33 9.98 3.66 11 4 C8.03 4 5.06 4 2 4 C1.34 2.68 0.68 1.36 0 0 Z " fill="#BC31A6" transform="translate(706,817)"/>
<path d="M0 0 C0.57234375 0.21527344 1.1446875 0.43054688 1.734375 0.65234375 C0.11445335 1.51610271 -1.51174361 2.36810229 -3.140625 3.21484375 C-4.49800781 3.92833984 -4.49800781 3.92833984 -5.8828125 4.65625 C-6.66914062 4.98496094 -7.45546875 5.31367187 -8.265625 5.65234375 C-8.925625 5.32234375 -9.585625 4.99234375 -10.265625 4.65234375 C-9.02618224 3.78292881 -7.77355441 2.93228918 -6.515625 2.08984375 C-5.81953125 1.61417969 -5.1234375 1.13851562 -4.40625 0.6484375 C-2.265625 -0.34765625 -2.265625 -0.34765625 0 0 Z " fill="#E834A7" transform="translate(889.265625,792.34765625)"/>
<path d="M0 0 C1.258125 0.12375 2.51625 0.2475 3.8125 0.375 C4.87404297 0.47941406 4.87404297 0.47941406 5.95703125 0.5859375 C8 1 8 1 11 3 C7.44706507 4.14947895 6.20023331 4.0868937 2.6875 2.5625 C1.800625 2.046875 0.91375 1.53125 0 1 C0 0.67 0 0.34 0 0 Z " fill="#7E2FBC" transform="translate(801,185)"/>
<path d="M0 0 C0.33 0.66 0.66 1.32 1 2 C-1.64 2.33 -4.28 2.66 -7 3 C-7.33 2.01 -7.66 1.02 -8 0 C-2.25 -1.125 -2.25 -1.125 0 0 Z " fill="#BC38B6" transform="translate(716,789)"/>
<path d="M0 0 C-0.66 0 -1.32 0 -2 0 C-2 0.66 -2 1.32 -2 2 C-4.3125 2.625 -4.3125 2.625 -7 3 C-7.99 2.34 -8.98 1.68 -10 1 C-3.71428571 -1.42857143 -3.71428571 -1.42857143 0 0 Z " fill="#D22B87" transform="translate(840,783)"/>
<path d="M0 0 C0.99 0.33 1.98 0.66 3 1 C0.84267191 3.15732809 -0.11822443 3.48294825 -3 4.1875 C-4.051875 4.45626953 -4.051875 4.45626953 -5.125 4.73046875 C-7 5 -7 5 -9 4 C-8.67 3.34 -8.34 2.68 -8 2 C-6.0085944 1.61866701 -4.00720923 1.28674418 -2 1 C-1.34 0.67 -0.68 0.34 0 0 Z " fill="#DF3AA7" transform="translate(867,773)"/>
<path d="M0 0 C2.00130916 2.54712074 3.85727656 4.9527375 5 8 C4.625 10.25 4.625 10.25 4 12 C1.24331998 8.04476345 0.4682121 4.77576339 0 0 Z " fill="#BF2180" transform="translate(964,661)"/>
<path d="M0 0 C2.00047023 2.54605302 3.82572785 4.9664636 5 8 C4.67 8.99 4.34 9.98 4 11 C1.17438373 7.20307814 -0.56638908 4.81430721 0 0 Z " fill="#BD278F" transform="translate(919,551)"/>
<path d="M0 0 C0.99 0.66 1.98 1.32 3 2 C-1.455 4.97 -1.455 4.97 -6 8 C-6.33 7.34 -6.66 6.68 -7 6 C-6.21625 5.566875 -5.4325 5.13375 -4.625 4.6875 C-1.78301625 3.10779753 -1.78301625 3.10779753 0 0 Z " fill="#7B49DD" transform="translate(597,215)"/>
<path d="M0 0 C1.98 0.99 1.98 0.99 4 2 C4.33 2.99 4.66 3.98 5 5 C4.34 6.32 3.68 7.64 3 9 C2.01 6.03 1.02 3.06 0 0 Z " fill="#7C34B5" transform="translate(461,616)"/>
<path d="M0 0 C0.66 0 1.32 0 2 0 C3.37432457 3.81756824 2.67975039 7.07255329 2 11 C-0.32590854 7.36576791 -0.16265833 4.22911669 0 0 Z " fill="#7632B4" transform="translate(442,544)"/>
<path d="M0 0 C2.72107452 2.3500189 3.96702492 4.55674975 5 8 C4.67 8.99 4.34 9.98 4 11 C3.34 9.02 2.68 7.04 2 5 C1.34 5 0.68 5 0 5 C0 3.35 0 1.7 0 0 Z " fill="#B41F90" transform="translate(906,521)"/>
<path d="M0 0 C1.46726798 3.81489674 0.43336419 6.29011622 -1 10 C-2.1875 8.375 -2.1875 8.375 -3 6 C-1.625 2.75 -1.625 2.75 0 0 Z " fill="#8A36C0" transform="translate(711,498)"/>
<path d="M0 0 C3.7952131 1.49097658 5.61042731 3.75700849 8 7 C7.67 7.66 7.34 8.32 7 9 C5.83037314 7.69013727 4.66437056 6.3770374 3.5 5.0625 C2.8503125 4.33160156 2.200625 3.60070312 1.53125 2.84765625 C0 1 0 1 0 0 Z " fill="#A631A7" transform="translate(958,306)"/>
<path d="M0 0 C0.99 0.66 1.98 1.32 3 2 C1.35 3.65 -0.3 5.3 -2 7 C-2.66 6.67 -3.32 6.34 -4 6 C-3.525625 5.38125 -3.05125 4.7625 -2.5625 4.125 C-0.97582559 2.09294454 -0.97582559 2.09294454 0 0 Z " fill="#7C4EE1" transform="translate(537,259)"/>
<path d="M0 0 C-1 2 -1 2 -4 4 C-4 3.34 -4 2.68 -4 2 C-4.99 1.67 -5.98 1.34 -7 1 C-4 0 -4 0 0 0 Z M-11 2 C-8.875 2.375 -8.875 2.375 -7 3 C-8.98 3.33 -10.96 3.66 -13 4 C-12.34 3.34 -11.68 2.68 -11 2 Z " fill="#7A49E3" transform="translate(671,188)"/>
<path d="M0 0 C-1.75 1.5625 -1.75 1.5625 -4 3 C-6.1875 2.8125 -6.1875 2.8125 -8 2 C-8.33 1.34 -8.66 0.68 -9 0 C-5.52176885 -1.15941038 -3.54104422 -0.70820884 0 0 Z " fill="#7B41D0" transform="translate(688,184)"/>
<path d="M0 0 C3 1 3 1 4.25 3.375 C5 6 5 6 4 9 C3.34 8.34 2.68 7.68 2 7 C2 5.68 2 4.36 2 3 C1.34 3 0.68 3 0 3 C0 2.01 0 1.02 0 0 Z " fill="#B8299C" transform="translate(909,530)"/>
</svg>
